<svg width="14" height="20" viewBox="0 0 14 20" fill="none" xmlns="http://www.w3.org/2000/svg">
<path d="M11.8802 15.6504C11.9098 15.5683 11.9258 15.4795 11.9258 15.3873C11.9258 15.1665 11.9661 14.9495 12.0457 14.7437L12.8975 12.5345C13.0203 12.2166 13.0824 11.8822 13.0824 11.5414V9.1817C13.0824 8.33915 12.3971 7.65384 11.5545 7.65384C11.3483 7.65384 11.1517 7.69461 10.9721 7.76936C10.842 7.05784 10.2174 6.51669 9.469 6.51669C9.254 6.51669 9.04967 6.56134 8.86378 6.64142C8.6944 5.98184 8.095 5.49261 7.38349 5.49261C7.18692 5.49261 6.99909 5.52998 6.82631 5.59793V3.1154C6.82631 2.27285 6.14101 1.58754 5.29845 1.58754C4.4559 1.58754 3.77059 2.27285 3.77059 3.1154V9.44185L3.43474 9.10599C3.14596 8.81721 2.76253 8.6585 2.35436 8.6585C1.94619 8.6585 1.56228 8.81721 1.27399 9.10599C0.682355 9.69811 0.678472 10.6586 1.26234 11.2556L4.25157 14.6404C4.46997 14.8879 4.61557 15.1907 4.67236 15.5164C4.6811 15.5674 4.69517 15.6169 4.71313 15.6639C4.00598 15.8392 3.48084 16.4788 3.48084 17.2394V18.377C3.48084 19.272 4.20886 20 5.10383 20H11.5497C12.4446 20 13.1727 19.272 13.1727 18.377V17.2394C13.1727 16.458 12.6179 15.8042 11.8816 15.6504H11.8802ZM4.61412 14.3191L1.61567 10.9241C1.20847 10.5169 1.20847 9.85682 1.61567 9.44961C2.02287 9.04241 2.68294 9.04241 3.09014 9.44961L4.25448 10.614V3.11492C4.25448 2.53881 4.72138 2.0724 5.297 2.0724C5.8731 2.0724 6.33951 2.5393 6.33951 3.11492V7.02047C6.33951 6.44437 6.80641 5.97796 7.38203 5.97796C7.95813 5.97796 8.42455 6.44486 8.42455 7.02047V8.04406C8.42455 7.46796 8.89145 7.00154 9.46706 7.00154C10.0432 7.00154 10.5096 7.46844 10.5096 8.04406V9.1817C10.5096 8.6056 10.9765 8.13919 11.5521 8.13919C12.1282 8.13919 12.5946 8.60609 12.5946 9.1817V11.5414C12.5946 11.8215 12.5432 12.0986 12.4422 12.3597L11.5904 14.569C11.49 14.8301 11.438 15.1077 11.438 15.3873C11.438 15.5494 11.3065 15.6814 11.1439 15.6814H5.43726C5.29263 15.6814 5.17178 15.5756 5.14703 15.4329C5.07519 15.0218 4.89125 14.6355 4.61169 14.3191H4.61412ZM12.6859 18.377C12.6859 19.005 12.1767 19.5147 11.5482 19.5147H5.10237C4.47434 19.5147 3.96473 19.0055 3.96473 18.377V17.2394C3.96473 16.6113 4.47385 16.1017 5.10237 16.1017H11.5482C12.1762 16.1017 12.6859 16.6109 12.6859 17.2394V18.377ZM5.13877 0.00338272C3.49055 0.082979 2.15343 1.41427 2.06655 3.0625C2.01996 3.94388 2.32864 4.75441 2.86154 5.364C3.00812 5.53144 3.28476 5.42612 3.28476 5.20383C3.28476 5.14414 3.26195 5.08735 3.22264 5.04221C2.79117 4.54668 2.53491 3.89535 2.54801 3.18432C2.57616 1.67587 3.83854 0.46009 5.3465 0.485814C6.84378 0.511537 8.04938 1.73315 8.04938 3.23674C8.04938 3.77644 7.89407 4.27974 7.62567 4.70441C7.54074 4.83885 7.62179 5.01503 7.77758 5.0461L7.79942 5.05046C7.89358 5.07036 7.99114 5.03299 8.04258 4.95146C8.35466 4.45446 8.5352 3.86623 8.5352 3.23674C8.5352 1.39923 6.99618 -0.0859205 5.13926 0.00386798L5.13877 0.00338272Z" fill="white"/>
</svg>
