<svg width="42" height="42" viewBox="0 0 42 42" fill="none" xmlns="http://www.w3.org/2000/svg">
<g clip-path="url(#clip0_682_1630)">
<path fill-rule="evenodd" clip-rule="evenodd" d="M21 20.0977C18.0469 20.0977 15.75 17.8008 15.75 14.8477C15.75 11.9766 18.0469 9.59766 21 9.59766C23.8711 9.59766 26.25 11.9766 26.25 14.8477C26.25 17.7188 23.8711 20.0977 21 20.0977ZM37.8164 34.9453H24.6914C24.9375 35.6836 25.4297 36.9141 26.4141 37.8984C26.4961 37.9805 26.6602 38.1445 26.6602 38.2266C27.0703 38.5547 27.4805 38.8828 27.9727 39.2109H28.0547C28.3828 39.2109 28.6289 39.457 28.6289 39.7852V41.1797C28.5469 41.5078 28.3008 41.7539 27.9727 41.7539H14.0273C13.6992 41.7539 13.4531 41.5078 13.4531 41.1797V39.7852C13.4531 39.457 13.6992 39.2109 14.0273 39.2109C14.5195 38.8828 14.9297 38.5547 15.2578 38.2266C15.3398 38.0625 15.4219 37.9805 15.5039 37.9805C16.4883 36.9141 16.9805 35.6836 17.2266 34.9453H4.18359C1.88672 34.9453 0 33.0586 0 30.7617V28.875V4.42969C0 2.13281 1.88672 0.246094 4.18359 0.246094H37.8164C40.1133 0.246094 41.918 2.13281 41.918 4.42969V28.6289C42 28.7109 42 28.793 42 28.875C42 28.875 42 28.957 41.918 29.0391V30.7617C41.918 33.0586 40.1133 34.9453 37.8164 34.9453ZM23.4609 34.9453H18.457C18.293 35.5195 17.8828 36.75 17.0625 37.8984H24.8555C24.0352 36.75 23.625 35.5195 23.4609 34.9453ZM4.18359 1.39453C2.54297 1.39453 1.23047 2.78906 1.23047 4.42969V28.2188H40.7695V4.42969C40.7695 2.78906 39.457 1.39453 37.8164 1.39453H4.18359ZM1.23047 29.4492V30.7617C1.23047 32.4023 2.54297 33.7148 4.18359 33.7148H17.8828H18.1289H37.8164C39.457 33.7148 40.7695 32.4023 40.7695 30.7617V29.4492H1.23047ZM15.9961 39.1289C15.5859 39.457 15.1758 39.8672 14.6016 40.1133V40.5234H27.3984V40.1953C26.8242 39.8672 26.332 39.5391 25.9219 39.1289H15.9961ZM22.7227 32.1562H19.2773C18.9492 32.1562 18.7031 31.9102 18.7031 31.582C18.7031 31.2539 18.9492 30.9258 19.2773 30.9258H22.7227C23.0508 30.9258 23.2969 31.2539 23.2969 31.582C23.2969 31.9102 23.0508 32.1562 22.7227 32.1562ZM22.6406 26.0039H19.3594C19.0312 26.0039 18.7852 25.6758 18.7852 25.3477V23.2969C17.9648 23.1328 17.2266 22.8047 16.4883 22.3945L15.0938 23.7891C15.0117 23.9531 14.8477 24.0352 14.6836 24.0352C14.5195 24.0352 14.3555 23.9531 14.2734 23.7891L11.9766 21.5742C11.7305 21.3281 11.7305 21 11.9766 20.7539L13.4531 19.2773C13.043 18.5391 12.7148 17.8828 12.4688 17.0625H10.418C10.0898 17.0625 9.84375 16.7344 9.84375 16.4062V13.207C9.84375 12.8789 10.0898 12.6328 10.418 12.6328H12.4688C12.7148 11.8125 13.043 11.0742 13.4531 10.3359L11.9766 8.94141C11.7305 8.69531 11.7305 8.36719 11.9766 8.12109L14.2734 5.82422C14.5195 5.57812 14.8477 5.57812 15.0938 5.82422L16.5703 7.30078C17.2266 6.89062 18.0469 6.5625 18.7852 6.31641V4.26562C18.7852 3.9375 19.0312 3.69141 19.3594 3.69141H22.6406C22.9688 3.69141 23.2148 3.9375 23.2148 4.26562V6.31641C24.0352 6.5625 24.7734 6.89062 25.5117 7.30078L26.9062 5.82422C27.1523 5.57812 27.5625 5.57812 27.7266 5.82422L30.1055 8.12109C30.1875 8.20312 30.2695 8.36719 30.2695 8.53125C30.2695 8.69531 30.1875 8.85938 30.1055 8.94141L28.6289 10.418C29.0391 11.0742 29.3672 11.8125 29.6133 12.6328H31.582C31.9922 12.6328 32.2383 12.9609 32.2383 13.2891V16.4883C32.2383 16.8164 31.9922 17.0625 31.582 17.0625H29.6133C29.3672 17.8828 29.0391 18.6211 28.6289 19.3594L30.1055 20.7539C30.1875 20.8359 30.2695 21 30.2695 21.1641C30.2695 21.3281 30.1875 21.4922 30.1055 21.5742L27.7266 23.8711C27.6445 24.0352 27.4805 24.0352 27.3984 24.0352C27.1523 24.0352 27.0703 24.0352 26.9883 23.8711L25.5117 22.4766C24.8555 22.8867 24.1172 23.2148 23.2969 23.3789V25.4297C23.2148 25.7578 22.8867 26.0039 22.6406 26.0039ZM19.9336 24.7734H21.9844V22.8867C21.9844 22.6406 22.2305 22.3945 22.4766 22.3125C23.4609 22.0664 24.3633 21.6562 25.1836 21.1641C25.4297 21 25.7578 21 25.9219 21.2461L27.2344 22.6406L28.7109 21.1641L27.3984 19.7695C27.1523 19.6055 27.1523 19.2773 27.3164 19.0312C27.8086 18.2109 28.2188 17.3906 28.3828 16.3242C28.4648 16.0781 28.7109 15.9141 28.957 15.9141H30.9258V13.8633H29.0391C28.793 13.8633 28.5469 13.6992 28.4648 13.3711C28.2188 12.3867 27.8906 11.4844 27.3164 10.6641C27.1523 10.5 27.1523 10.1719 27.3984 9.92578L28.793 8.61328L27.3164 7.13672L25.9219 8.53125C25.7578 8.69531 25.4297 8.77734 25.1836 8.61328C24.3633 8.03906 23.4609 7.71094 22.4766 7.46484C22.1484 7.38281 21.9844 7.13672 21.9844 6.89062V5.00391H19.9336V6.89062C19.9336 7.13672 19.6875 7.38281 19.4414 7.46484C18.457 7.71094 17.5547 8.03906 16.7344 8.61328C16.4883 8.69531 16.1602 8.69531 15.9961 8.53125L14.6016 7.21875L13.207 8.61328L14.6016 10.0078C14.7656 10.1719 14.8477 10.5 14.6016 10.7461C14.1094 11.5664 13.6992 12.4688 13.5352 13.4531C13.4531 13.6992 13.207 13.9453 12.9609 13.9453H10.9922V15.9141H12.9609C13.207 15.9141 13.4531 16.1602 13.5352 16.4062C13.6992 17.3906 14.1094 18.293 14.6016 19.1953C14.8477 19.3594 14.7656 19.6875 14.6016 19.9336L13.207 21.2461L14.6016 22.7227L15.9961 21.4102C16.1602 21.1641 16.4883 21.1641 16.7344 21.3281C17.5547 21.8203 18.457 22.2305 19.4414 22.3945C19.6875 22.4766 19.9336 22.7227 19.9336 23.0508V24.7734ZM21 10.8281C18.7852 10.8281 16.8984 12.6328 16.8984 14.8477C16.8984 17.1445 18.7031 18.9492 21 18.9492C23.2148 18.9492 25.0195 17.0625 25.0195 14.8477C25.0195 12.6328 23.2148 10.8281 21 10.8281Z" fill="#14161A"/>
</g>
<defs>
<clipPath id="clip0_682_1630">
<rect width="42" height="42" fill="white"/>
</clipPath>
</defs>
</svg>
