<svg width="42" height="42" viewBox="0 0 42 42" fill="none" xmlns="http://www.w3.org/2000/svg">
<path d="M10.4974 4.33361e-05C4.70636 4.58164e-05 0 4.70646 0 10.4975C0 16.2885 4.70636 20.9988 10.5 20.9988C11.1628 20.9948 11.7739 20.939 12.4213 20.8116C13.5414 21.5746 14.8201 22.1824 16.2089 22.5535C17.5732 22.9136 18.9878 23.0424 20.395 22.9278C21.0134 22.8804 21.2265 22.0802 20.7142 21.7306C19.3393 20.7894 18.1922 19.5267 17.497 18.3302C19.8525 16.1693 20.9993 13.3829 21 10.5C21 4.70659 16.2885 4.08558e-05 10.4974 4.33361e-05ZM22.2728 4.33361e-05C21.8242 -0.00105043 21.3794 0.020625 20.9321 0.0487493C20.5693 0.0680957 20.2923 0.378144 20.313 0.740888C20.3351 1.10177 20.6429 1.3769 21.0038 1.35612C21.4297 1.32666 21.8564 1.32078 22.283 1.31254C22.6475 1.31131 22.9408 1.01304 22.9367 0.648603C22.9327 0.286042 22.6353 -0.00407632 22.2728 4.33361e-05ZM24.9183 0.178205C24.5849 0.165803 24.2911 0.408262 24.2454 0.746015C24.1979 1.10432 24.4486 1.4342 24.8068 1.48301C25.2583 1.54199 25.6558 1.62301 26.0513 1.70091C26.4059 1.77733 26.7558 1.55178 26.8319 1.19719C26.9083 0.842665 26.6828 0.492704 26.3282 0.416608C25.8649 0.30894 25.3848 0.244328 24.9183 0.178205ZM28.8007 1.11516C28.4713 1.07416 28.1932 1.27316 28.0957 1.54966C27.9747 1.89215 28.1553 2.26799 28.4982 2.38792C28.8969 2.5227 29.2833 2.69004 29.671 2.85319C30.004 3.00027 30.3925 2.84873 30.5374 2.51481C30.6839 2.18043 30.5297 1.79012 30.1939 1.64708C29.6855 1.42864 28.9128 1.11679 28.8007 1.11516ZM10.4974 1.31254C15.5792 1.31254 19.6875 5.41576 19.6875 10.4975C19.687 12.6455 18.9364 14.705 17.597 16.3345C16.7085 14.8738 15.3854 13.7125 13.8043 13.0276C14.6025 12.201 15.095 11.078 15.095 9.84379C15.095 7.31463 13.0266 5.25133 10.4974 5.25133C7.96826 5.25133 5.90497 7.31463 5.90497 9.84379C5.90497 11.078 6.39738 12.201 7.1944 13.0276C5.6127 13.7129 4.28774 14.8757 3.39917 16.3371C2.09464 14.7504 1.3125 12.7165 1.3125 10.4975C1.3125 5.41576 5.41571 1.31254 10.4974 1.31254ZM32.3293 2.81218C32.0617 2.77965 31.8297 2.92124 31.7 3.11467C31.5076 3.4235 31.6041 3.8302 31.914 4.02086C32.2777 4.24368 32.6291 4.48505 32.9791 4.72838C33.2763 4.93332 33.6839 4.8591 33.8904 4.56303C34.0997 4.26619 34.0277 3.85624 33.7302 3.64787C33.3641 3.38672 32.9857 3.14741 32.6061 2.90702C32.5114 2.85285 32.4185 2.82302 32.3293 2.81218ZM35.308 5.20518C35.1519 5.21543 35.0158 5.28786 34.9069 5.40129C34.6565 5.66125 34.6637 6.0748 34.9222 6.3267C35.2364 6.6135 35.5262 6.92438 35.8182 7.23289C36.0638 7.50153 36.4816 7.51862 36.7487 7.27134C37.0159 7.02434 37.0306 6.6066 36.7821 6.3408C36.4811 6.0055 36.158 5.69301 35.8323 5.38206C35.6406 5.24687 35.4642 5.19493 35.308 5.20518ZM10.4974 6.56383C12.3173 6.56383 13.7825 8.02393 13.7825 9.84379C13.7825 11.6637 12.3173 13.1238 10.4974 13.1238C8.67757 13.1238 7.21747 11.6637 7.21747 9.84379C7.21747 8.02393 8.67757 6.56383 10.4974 6.56383ZM37.9958 8.18138C37.8299 8.16823 37.6744 8.22067 37.5716 8.29417C37.2739 8.49924 37.1984 8.90575 37.4024 9.2042C37.6514 9.548 37.8686 9.91252 38.0894 10.2745C38.2767 10.5848 38.6801 10.6848 38.9905 10.4975C39.3009 10.3102 39.4008 9.90675 39.2135 9.59642C38.9894 9.2049 38.7376 8.83353 38.4816 8.46336C38.3382 8.27321 38.1618 8.19451 37.9958 8.18138ZM26.9037 8.53129C25.8244 8.53129 24.9375 9.41818 24.9375 10.4975V14.4363C24.9375 15.5156 25.8244 16.4076 26.9037 16.4076H30.8425C31.9218 16.4076 32.8099 15.5156 32.8099 14.4363C32.8087 14.0756 32.5169 13.7838 32.1562 13.7826C31.7937 13.7811 31.4974 14.0737 31.4962 14.4363C31.4962 14.8112 31.2174 15.0951 30.8425 15.0951H26.9037C26.5288 15.0951 26.25 14.8112 26.25 14.4363V10.4975C26.25 10.1226 26.5288 9.84379 26.9037 9.84379H30.1837C30.5462 9.84524 30.8412 9.55266 30.8425 9.19011C30.8439 8.82566 30.5481 8.52985 30.1837 8.53129H26.9037ZM32.8317 9.84379C32.6448 9.84754 32.5121 9.90068 32.4023 9.98863L29.5787 12.2471L28.6827 11.3498C28.4262 11.0922 28.0087 11.0922 27.7522 11.3498C27.4978 11.6058 27.4978 12.0193 27.7522 12.2752L29.0647 13.589C29.3015 13.8271 29.6798 13.847 29.9414 13.6365L33.2214 11.0115C33.5029 10.785 33.5479 10.3737 33.3226 10.0912C33.2137 9.95508 33.0531 9.86471 32.8317 9.84379ZM39.7698 11.6228C39.6966 11.6303 39.6318 11.6488 39.5826 11.6703C39.2476 11.8114 39.09 12.1985 39.2327 12.5329C39.405 12.9217 39.5464 13.3232 39.689 13.7236C39.811 14.0646 40.1862 14.2424 40.5273 14.121C40.8682 13.999 41.0448 13.6238 40.9233 13.2827C40.7852 12.854 40.613 12.44 40.444 12.024C40.2829 11.6728 39.9893 11.6005 39.7698 11.6228ZM8.45691 13.9556C9.07238 14.2629 9.76501 14.4363 10.4974 14.4363C11.23 14.4363 11.9244 14.263 12.5405 13.9556C14.3135 14.4931 15.7853 15.7171 16.6536 17.3215C16.5219 17.4402 16.3879 17.5559 16.2486 17.6675C16.0006 17.865 15.9283 18.211 16.0781 18.4904C16.7126 19.6612 17.4843 20.6859 18.4839 21.6153C17.7363 21.5733 17.275 21.4761 16.546 21.2846C15.2128 20.9283 14.0103 20.336 12.9494 19.576C12.798 19.468 12.6068 19.4294 12.4252 19.4696C11.7914 19.6098 11.1465 19.6837 10.4974 19.6875C8.12878 19.6875 5.97334 18.7941 4.34637 17.3266C5.21358 15.7199 6.68283 14.4941 8.45691 13.9556ZM41.0848 15.3899C41.0087 15.3799 40.9309 15.3824 40.8554 15.3912C40.4999 15.4634 40.2699 15.8098 40.3427 16.1654C40.4349 16.6045 40.4865 17.0161 40.5414 17.4061C40.5831 17.7658 40.9084 18.024 41.2681 17.9829C41.6279 17.9412 41.8862 17.6159 41.8449 17.2561C41.798 16.7879 41.7021 16.3035 41.6309 15.9039C41.5279 15.5541 41.3132 15.4198 41.0848 15.3899ZM22.656 19.0313C22.3038 19.0298 21.9516 19.0437 21.5999 19.0723C20.9836 19.1236 20.7734 19.9214 21.2845 20.2695C22.6437 21.2121 23.6646 22.3069 24.4979 23.6776C22.2688 25.6306 20.9994 28.5445 20.9987 31.4962C20.9987 37.2872 25.7051 42 31.4962 42C37.2872 42 42 37.2872 42 31.4962C42 25.7052 37.2872 21 31.4962 21C30.8374 21.004 30.217 21.068 29.571 21.1949C28.4225 20.405 27.1786 19.8164 25.7899 19.4453C24.7666 19.1752 23.7126 19.0357 22.656 19.0313ZM41.3399 19.2953C40.9773 19.2939 40.6823 19.5865 40.6811 19.949C40.6784 20.3143 40.6573 20.6777 40.6375 21.0423C40.6167 21.4033 40.8919 21.7138 41.2527 21.7358C41.6137 21.7566 41.9242 21.4814 41.9462 21.1205C41.9798 20.7303 41.9851 20.3387 41.9949 19.949C41.9936 19.5884 41.7006 19.2966 41.3399 19.2953ZM0.712647 20.2592C0.329789 20.2731 0.0744588 20.5399 0.053833 20.8783C0.0219609 21.2978 0.0126746 21.6836 2.48031e-07 22.0498C0.00124537 22.4123 0.29626 22.7062 0.658814 22.7048C1.01948 22.7035 1.31123 22.4193 1.3125 22.0498C1.32118 21.6694 1.34451 21.2808 1.36121 20.9552C1.38204 20.5942 1.11779 20.2592 0.712647 20.2592ZM23.5148 20.3848C24.19 20.4379 24.7273 20.5234 25.4515 20.7142C26.784 21.0703 27.9885 21.6581 29.0506 22.4189C29.2013 22.5287 29.3912 22.5693 29.5735 22.5304C30.2057 22.3907 30.8487 22.3167 31.4962 22.3125C36.5779 22.3125 40.6862 26.4145 40.6862 31.4962C40.6862 33.7152 39.9038 35.7491 38.5983 37.3358C37.7097 35.874 36.385 34.7116 34.803 34.0263C35.6012 33.1997 36.0938 32.0766 36.0938 30.8425C36.0938 28.3133 34.0253 26.25 31.4962 26.25C28.967 26.25 26.9037 28.3133 26.9037 30.8425C26.9037 32.077 27.3958 33.2009 28.1931 34.0276C26.612 34.7127 25.2877 35.8739 24.3992 37.3345C23.095 35.748 22.3125 33.7148 22.3125 31.4962C22.3132 28.7084 23.5761 26.076 25.7514 24.3326C25.9994 24.1351 26.0704 23.7878 25.9206 23.5084C25.2866 22.3386 24.5133 21.3137 23.5148 20.3848ZM0.765198 24.016C0.383973 24.043 0.108816 24.3825 0.149964 24.744C0.207628 25.1963 0.286483 25.6467 0.367859 26.0949C0.44177 26.4492 0.788897 26.677 1.14331 26.6038C1.49725 26.5321 1.72722 26.1878 1.65729 25.8335C1.56495 25.3958 1.51311 24.9818 1.45862 24.594C1.41955 24.2568 1.12008 23.9912 0.765198 24.016ZM11.1909 24.9388C10.8857 24.9356 10.5724 24.9847 10.2603 25.0926C9.02813 25.5518 8.53125 26.5102 8.53125 27.5638C8.53125 28.6419 9.22102 29.3361 9.72711 29.8017C9.98016 30.0346 10.1998 30.2331 10.3282 30.4016C10.4567 30.57 10.4974 30.6784 10.4974 30.8425C10.4987 31.2051 10.7937 31.4976 11.1562 31.4962C11.5169 31.4949 11.8087 31.2032 11.8099 30.8425C11.8099 30.3503 11.6109 29.9225 11.3703 29.6069C11.1296 29.2914 10.8532 29.0579 10.6141 28.8379C10.1358 28.3979 9.84375 28.0612 9.84375 27.5638C9.84375 27.044 10.0228 26.577 10.7064 26.3282C11.309 26.1089 11.9738 26.3483 12.2944 26.9037C12.4749 27.2182 12.8773 27.3267 13.1916 27.146C13.5043 26.9638 13.6103 26.5631 13.4288 26.25C12.9453 25.433 12.1064 24.9483 11.1909 24.9388ZM31.4539 27.5638C33.316 27.5638 34.7812 29.0226 34.7812 30.8425C34.7812 32.6624 33.316 34.1225 31.4962 34.1225C29.6763 34.1225 28.2175 32.6624 28.2175 30.8425C28.2175 29.0511 29.6315 27.6085 31.4539 27.5638ZM1.75854 27.8484C1.68567 27.8407 1.61194 27.8437 1.54065 27.8548C1.10102 27.9933 0.957914 28.3923 1.07025 28.7161C1.2146 29.1435 1.38534 29.5592 1.55475 29.9761C1.69592 30.3111 2.08294 30.4674 2.41736 30.3247C2.74973 30.1835 2.90544 29.8003 2.76599 29.4672C2.59607 29.0771 2.4533 28.676 2.31097 28.2752C2.18897 27.991 1.97717 27.8716 1.75854 27.8484ZM3.45813 31.418C3.29426 31.3908 3.13072 31.4279 3.00824 31.5013C2.69785 31.6886 2.5979 32.092 2.78522 32.4024C3.00914 32.794 3.26155 33.1655 3.51709 33.5367C3.72216 33.8344 4.12995 33.9099 4.42841 33.7059C4.72611 33.5008 4.80157 33.093 4.5976 32.7946C4.34886 32.4504 4.13097 32.086 3.9093 31.7243C3.78623 31.5369 3.622 31.4452 3.45813 31.418ZM11.1562 32.8113C10.7938 32.8113 10.5 33.1051 10.5 33.4675C10.5 33.8299 10.7938 34.1238 11.1562 34.1238C11.5187 34.1238 11.8125 33.8299 11.8125 33.4675C11.8125 33.1051 11.5187 32.8113 11.1562 32.8113ZM5.69476 34.557C5.53154 34.558 5.37594 34.6225 5.25128 34.7275C4.98725 34.974 4.96885 35.3864 5.21411 35.6516C5.51276 35.9908 5.83878 36.3029 6.1626 36.618C6.42443 36.8704 6.84075 36.8606 7.09186 36.5974C7.34099 36.3362 7.33261 35.9239 7.07264 35.6733C6.76258 35.3843 6.47346 35.0744 6.18182 34.7672C6.02899 34.6186 5.85799 34.556 5.69476 34.557ZM29.4569 34.9543C30.0722 35.2614 30.764 35.435 31.4962 35.435C32.2288 35.435 32.9231 35.2617 33.5392 34.9543C35.3133 35.4918 36.7865 36.716 37.6549 38.3214C36.0263 39.7915 33.8671 40.6863 31.4962 40.6863C29.1274 40.6863 26.9721 39.7929 25.3451 38.3253C26.2125 36.7186 27.6826 35.4926 29.4569 34.9543ZM8.7312 37.1615C8.45533 37.121 8.22386 37.2703 8.10443 37.4358C7.89949 37.733 7.97371 38.1405 8.26978 38.3471C8.63323 38.6137 9.01386 38.8524 9.39386 39.0931C9.70041 39.283 10.1015 39.1893 10.2936 38.8841C10.4869 38.5766 10.3942 38.1702 10.086 37.9779C9.72157 37.7561 9.37025 37.5143 9.01959 37.2717C8.92036 37.2097 8.82314 37.1749 8.7312 37.1615ZM12.0381 39.0943C11.7712 39.1023 11.5647 39.2736 11.4613 39.4853C11.318 39.8184 11.473 40.2048 11.8061 40.3479C12.2182 40.5387 12.645 40.6946 13.0699 40.8516C13.411 40.9694 13.7832 40.7896 13.903 40.4491C14.024 40.1066 13.8447 39.7308 13.5018 39.6109C13.1009 39.4773 12.713 39.3095 12.3239 39.1456C12.2233 39.1075 12.127 39.0917 12.0381 39.0943ZM15.8013 40.2864C15.4716 40.2921 15.2291 40.5312 15.1681 40.8029C15.0917 41.1574 15.3172 41.5061 15.6718 41.5822C16.1152 41.6831 16.565 41.7472 17.0138 41.8155C17.374 41.8658 17.7061 41.6132 17.7546 41.2528C17.805 40.8927 17.5535 40.5607 17.1932 40.5119C16.691 40.4432 16.241 40.359 15.8013 40.2864ZM20.9897 40.6375C20.5642 40.6741 20.1386 40.6797 19.7119 40.6863C19.3512 40.6902 19.0606 40.9844 19.062 41.3451C19.0633 41.7095 19.3615 42.0042 19.726 42C20.1743 42.0008 20.6194 41.9782 21.0667 41.9513C21.4295 41.932 21.7077 41.6207 21.687 41.2579C21.6677 40.8931 21.3563 40.6252 20.9897 40.6375Z" fill="black"/>
</svg>
