<svg width="42" height="42" viewBox="0 0 42 42" fill="none" xmlns="http://www.w3.org/2000/svg">
<g clip-path="url(#clip0_679_356)">
<path d="M41.918 17.5908V24.4063C41.918 24.7619 41.6717 25.0701 41.325 25.1487L39.0424 25.6661C38.6325 25.7591 38.2247 25.502 38.1317 25.092C38.0387 24.6819 38.2957 24.2741 38.7058 24.1812L40.3953 23.7982V18.1994L35.3998 17.0722C35.1366 17.0128 34.9246 16.8186 34.8424 16.5616C34.6005 15.8057 34.2921 15.0614 33.9257 14.3495C33.8024 14.1097 33.815 13.8225 33.959 13.5945L36.6952 9.26364L32.7349 5.30563L28.4038 8.03965C28.176 8.18353 27.8887 8.19616 27.6492 8.07287C26.9382 7.70709 26.1945 7.39857 25.4389 7.15584C25.1824 7.07348 24.9885 6.86168 24.9291 6.59893L23.7993 1.60307H18.2006L17.0709 6.59893C17.0115 6.86168 16.8176 7.07348 16.561 7.15584C15.7986 7.40071 15.0554 7.70898 14.3519 8.0723C14.112 8.19616 13.8246 8.18378 13.5964 8.03973L9.26256 5.30563L5.30431 9.2638L8.03832 13.5948C8.18221 13.8228 8.19484 14.1098 8.07146 14.3495C7.70495 15.0619 7.39651 15.8062 7.15485 16.5615C7.07265 16.8184 6.86068 17.0126 6.59769 17.0721L1.60461 18.2018V23.7979L6.59777 24.9276C6.86093 24.9871 7.07273 25.1813 7.15493 25.4382C7.39717 26.1954 7.70536 26.9385 8.07114 27.6467C8.195 27.8865 8.18254 28.1739 8.03857 28.4023L5.30439 32.7359L9.26272 36.6942L13.5965 33.96C13.8248 33.8158 14.1122 33.8037 14.3521 33.9275C15.0556 34.2908 15.7988 34.5991 16.5612 34.8439C16.8177 34.9263 17.0116 35.1381 17.071 35.4008L18.2008 40.3967H23.7996L24.0884 39.1198C24.1811 38.7097 24.589 38.4525 24.9989 38.5452C25.409 38.638 25.6663 39.0456 25.5736 39.4557L25.1505 41.326C25.072 41.673 24.7637 41.9193 24.4079 41.9193H17.5924C17.2367 41.9193 16.9283 41.6729 16.8499 41.326L15.6804 36.154C15.1226 35.9579 14.5758 35.7312 14.0467 35.4765L9.56082 38.3066C9.26002 38.4964 8.86766 38.4526 8.61632 38.2011L3.7978 33.3825C3.54621 33.131 3.50241 32.7388 3.69223 32.438L6.52239 27.9522C6.26653 27.4209 6.03963 26.8739 5.84456 26.3183L0.675363 25.1488C0.328371 25.0702 0.0820312 24.762 0.0820312 24.4063V17.5935C0.0820312 17.2377 0.328371 16.9295 0.675363 16.851L5.84432 15.6816C6.03914 15.1266 6.26612 14.579 6.52247 14.0456L3.69214 9.56207C3.50216 9.26126 3.54605 8.8689 3.79764 8.61739L8.61615 3.79896C8.8675 3.54737 9.25985 3.50357 9.56066 3.69339L14.0465 6.52338C14.5756 6.26868 15.1224 6.04202 15.6802 5.84589L16.8497 0.673898C16.9281 0.326906 17.2365 0.0805664 17.5923 0.0805664H24.4077C24.7635 0.0805664 25.0719 0.326988 25.1503 0.673898L26.3198 5.84597C26.8742 6.04112 27.4209 6.26794 27.953 6.52363L32.4365 3.69339C32.7372 3.50332 33.1295 3.54729 33.3811 3.79863L38.2022 8.61707C38.454 8.86874 38.4978 9.26118 38.3076 9.56223L35.475 14.0457C35.7312 14.5788 35.9581 15.1262 36.1528 15.6813L41.3242 16.8481C41.6714 16.9265 41.918 17.2349 41.918 17.5908ZM20.8621 26.4467L17.262 30.0468C18.805 30.6853 20.5057 30.9213 22.2245 30.7062C22.6421 30.653 23.0224 30.9497 23.0746 31.3669C23.1269 31.7841 22.831 32.1647 22.4139 32.217C21.9335 32.2773 21.454 32.307 20.9783 32.307C17.9949 32.307 15.1498 31.1387 13.0061 28.9951C12.2227 28.2116 11.5792 27.3405 11.0742 26.4134C11.0663 26.3996 11.0586 26.3856 11.0515 26.3713C8.74199 22.0881 9.39299 16.618 13.0061 13.0048C17.4139 8.5968 24.586 8.59697 28.9939 13.0048C31.5103 15.5211 32.7028 19.1276 32.1841 22.6522C32.1228 23.0681 31.7361 23.3547 31.3199 23.2946C30.9039 23.2333 30.6164 22.8465 30.6776 22.4305C31.1333 19.3344 30.1272 16.2913 27.9173 14.0813C24.103 10.2673 17.8971 10.2673 14.0828 14.0813C11.2083 16.956 10.5003 21.1888 11.9578 24.7331L15.5541 21.1368C15.153 18.9948 15.8354 16.7565 17.3882 15.2038C19.0459 13.5461 21.4854 12.8803 23.7547 13.4663C24.0193 13.5346 24.2269 13.7395 24.2987 14.0032C24.3706 14.2668 24.2957 14.5487 24.1023 14.7419L21.3762 17.4657L22.0433 19.9551L24.5333 20.6223L27.2597 17.8961C27.453 17.7028 27.7353 17.628 27.9988 17.7001C28.2626 17.7722 28.4674 17.9803 28.5354 18.2451C29.1187 20.5161 28.4518 22.9563 26.7948 24.6132C25.2444 26.1638 23.0063 26.8461 20.8621 26.4467ZM20.808 24.8762C22.5602 25.3263 24.4417 24.813 25.7181 23.5365C26.6426 22.6118 27.1677 21.371 27.217 20.092L25.299 22.0097C25.1066 22.2022 24.8263 22.2772 24.5635 22.2068L21.2248 21.3121C20.962 21.2418 20.7568 21.0366 20.6864 20.7739L19.7916 17.4347C19.7212 17.1719 19.7964 16.8915 19.9889 16.6992L21.907 14.7827C20.6294 14.8311 19.3895 15.3555 18.4647 16.2803C17.1863 17.5588 16.6728 19.4399 17.1248 21.1894C17.1922 21.4504 17.1165 21.7276 16.9259 21.9181L12.6861 26.1579C13.0744 26.784 13.5398 27.3754 14.0827 27.9184C14.6211 28.4567 15.2107 28.9239 15.8397 29.3159L20.0804 25.0752C20.2707 24.885 20.5477 24.8092 20.808 24.8762ZM40.778 32.5691C40.778 37.2299 36.9862 41.0217 32.3254 41.0217C27.6661 41.0217 23.8755 37.2299 23.8755 32.5691C23.8755 27.9098 27.6661 24.1192 32.3254 24.1192C36.9862 24.1192 40.778 27.9098 40.778 32.5691ZM39.2553 32.5691C39.2553 28.7494 36.1466 25.6418 32.3253 25.6418C28.5056 25.6418 25.398 28.7493 25.398 32.5691C25.398 36.3903 28.5055 39.4991 32.3253 39.4991C36.1466 39.4991 39.2553 36.3904 39.2553 32.5691ZM35.3884 29.3465L30.9069 34.1923L28.9279 32.2993C28.6241 32.0089 28.1423 32.0194 27.8515 32.3233C27.5609 32.6271 27.5716 33.109 27.8755 33.3997L30.414 35.8278C30.5558 35.9636 30.7444 36.039 30.9402 36.039C30.9479 36.039 30.9557 36.0389 30.9635 36.0386C31.1676 36.0323 31.3605 35.9444 31.4991 35.7946L36.5063 30.3804C36.7918 30.0718 36.773 29.5901 36.4643 29.3046C36.1556 29.0191 35.6739 29.0378 35.3884 29.3465Z" fill="#14161A"/>
</g>
<defs>
<clipPath id="clip0_679_356">
<rect width="42" height="42" fill="white"/>
</clipPath>
</defs>
</svg>
