<svg width="50" height="31" viewBox="0 0 50 31" fill="none" xmlns="http://www.w3.org/2000/svg">
<g clip-path="url(#clip0_3223_1604)">
<path d="M16.5766 21.8717L13.3784 15.3176L25.1802 7.54735L25.5856 5.02483L36.7117 0.587891L37.8603 3.31312L32.2748 5.36266L34.4594 16.7591L16.5766 21.8717Z" stroke="white" stroke-linecap="round" stroke-linejoin="round"/>
<path d="M33.9865 20.4521L32.7703 17.2539" stroke="white" stroke-linecap="round" stroke-linejoin="round"/>
<path d="M21.5766 20.4525H36.4414V12.1191H43.7387L48.5811 17.93V21.1957H49.5495V24.1912H46.8018" stroke="white" stroke-linecap="round" stroke-linejoin="round"/>
<path d="M37.8604 24.1914H27.6351" stroke="white" stroke-linecap="round" stroke-linejoin="round"/>
<path d="M38.8288 18.8527V14.5059H42.5901L45.4504 17.8617V18.8527H38.8288Z" stroke="white" stroke-linecap="round" stroke-linejoin="round"/>
<path d="M42.2973 29.89C44.7975 29.89 46.8243 27.8632 46.8243 25.363C46.8243 22.8628 44.7975 20.8359 42.2973 20.8359C39.7971 20.8359 37.7703 22.8628 37.7703 25.363C37.7703 27.8632 39.7971 29.89 42.2973 29.89Z" stroke="white" stroke-linecap="round" stroke-linejoin="round"/>
<path d="M23.1081 29.89C25.6083 29.89 27.6351 27.8632 27.6351 25.363C27.6351 22.8628 25.6083 20.8359 23.1081 20.8359C20.6079 20.8359 18.5811 22.8628 18.5811 25.363C18.5811 27.8632 20.6079 29.89 23.1081 29.89Z" stroke="white" stroke-linecap="round" stroke-linejoin="round"/>
<path d="M11.8694 19.6191L10.5405 19.8444L7.68018 23.3128H5.94594L2.59009 26.8263" stroke="white" stroke-linecap="round" stroke-linejoin="round"/>
<path d="M0.45047 29.0109L1.91443 26.8262H5.40542L7.22975 28.3577" stroke="white" stroke-linecap="round" stroke-linejoin="round"/>
<path d="M5.54053 29.8892L8.87386 26.8262H11.8694L15.6531 29.8892" stroke="white" stroke-linecap="round" stroke-linejoin="round"/>
</g>
<defs>
<clipPath id="clip0_3223_1604">
<rect width="50" height="30.2027" fill="white" transform="translate(0 0.136719)"/>
</clipPath>
</defs>
</svg>
