<svg width="50" height="46" viewBox="0 0 50 46" fill="none" xmlns="http://www.w3.org/2000/svg">
<g clip-path="url(#clip0_3223_1622)">
<path d="M15.9486 44.135L30.3859 27.9292L34.4373 14.6494L46.463 8.57227" stroke="white" stroke-width="1.5" stroke-linecap="round" stroke-linejoin="round"/>
<path d="M34.9518 33.877L31.2219 36.1599L29.3569 44.1342" stroke="white" stroke-width="1.5" stroke-linecap="round" stroke-linejoin="round"/>
<path d="M38.3601 23.877L43.1511 24.52L45.5627 40.7258" stroke="white" stroke-width="1.5" stroke-linecap="round" stroke-linejoin="round"/>
<path d="M41.9615 18.701L43.2798 16.6753L46.4631 15.1641" stroke="white" stroke-width="1.5" stroke-linecap="round" stroke-linejoin="round"/>
<path d="M49.3569 23.877V32.3014" stroke="white" stroke-width="1.5" stroke-linecap="round" stroke-linejoin="round"/>
<path d="M15.4341 39.021V35.4197H6.07721L1.25406 32.3329L6.84892 28.7638C7.36338 28.4422 7.42769 27.7348 7.00969 27.3168L0.643127 20.8538V16.0307L6.52737 16.7702C7.10615 16.8345 7.58846 16.3844 7.58846 15.8056L7.36338 6.64159L10.3859 2.84737L14.791 7.79914C15.1447 8.18499 15.7557 8.21715 16.1415 7.86345L22.283 1.97921L27.3312 0.982422L26.3666 7.4776C26.2701 8.05638 26.7203 8.57085 27.2991 8.57085H36.2058L37.1062 9.82486" stroke="white" stroke-width="1.5" stroke-linecap="round" stroke-linejoin="round"/>
<path d="M21.0289 25.0357C22.645 25.0357 23.955 23.7256 23.955 22.1096C23.955 20.4936 22.645 19.1836 21.0289 19.1836C19.4129 19.1836 18.1029 20.4936 18.1029 22.1096C18.1029 23.7256 19.4129 25.0357 21.0289 25.0357Z" stroke="white" stroke-width="1.5" stroke-linecap="round" stroke-linejoin="round"/>
<path d="M30.1929 17.6707C28.553 14.2624 25.0482 11.9473 21.0289 11.9473C15.4019 11.9473 10.836 16.5132 10.836 22.1402C10.836 27.7672 15.4019 32.3331 21.0289 32.3331" stroke="white" stroke-width="1.5" stroke-linecap="round" stroke-linejoin="round"/>
<path d="M6.88104 39.9219H7.58844" stroke="white" stroke-width="1.5" stroke-linecap="round" stroke-linejoin="round"/>
<path d="M8.07074 44.5527H8.77814" stroke="white" stroke-width="1.5" stroke-linecap="round" stroke-linejoin="round"/>
<path d="M12.7652 41.8516V42.6233" stroke="white" stroke-width="1.5" stroke-linecap="round" stroke-linejoin="round"/>
</g>
<defs>
<clipPath id="clip0_3223_1622">
<rect width="50" height="44.8553" fill="white" transform="translate(0 0.339844)"/>
</clipPath>
</defs>
</svg>
