<svg width="50" height="43" viewBox="0 0 50 43" fill="none" xmlns="http://www.w3.org/2000/svg">
<g clip-path="url(#clip0_3223_1592)">
<path d="M49.6823 22.124C48.2846 18.7568 46.8551 15.4213 45.4257 12.0541L44.7586 10.4341C44.6633 10.1164 44.4091 9.76697 43.9326 9.89403C43.742 9.95756 43.6785 10.0846 43.615 10.1799C43.5197 10.3705 43.5514 10.6247 43.6785 10.9106C43.9009 11.5141 44.155 12.0859 44.4091 12.6895L46.5692 17.8356L45.3621 18.4074L45.1715 18.1215C45.1715 18.1215 45.0762 17.9309 45.0127 17.8356C42.5349 13.1342 40.0572 8.40102 37.6112 3.63609C37.5159 3.54079 37.4206 3.38196 37.3888 3.19136C37.1982 2.74664 37.3253 2.27014 37.6112 1.88895C37.8971 1.50775 38.3736 1.31716 38.8183 1.38069C39.4218 1.44422 39.8348 1.76188 40.1207 2.42897C40.8513 4.20788 41.5819 5.98679 42.3443 7.7657C42.5349 8.14689 42.7891 8.30572 43.1385 8.21042C43.3291 8.14689 43.4244 8.01983 43.4879 7.89276C43.5197 7.73393 43.5197 7.5751 43.4562 7.35274L43.0114 6.33622C42.3761 4.74791 41.709 3.12783 41.0102 1.60305C40.5654 0.586535 39.7077 0.110042 38.5642 0.173575C37.4523 0.237107 36.6899 0.808899 36.2452 1.92072C36.1499 2.14308 35.9276 2.42897 35.6734 2.52427C32.0839 4.01728 28.4307 5.5103 24.9047 6.93978C24.7141 7.03507 24.5235 7.09861 24.3329 7.09861H21.2516C20.521 7.03507 19.9492 7.25744 19.5362 7.63863C19.1868 8.01983 18.9962 8.59162 19.0279 9.29047V12.3083H17.122C15.8196 12.3083 15.216 12.9118 15.216 14.2142V15.0402C15.216 15.9614 15.216 16.9144 15.2478 17.8038C15.2478 18.0897 15.1842 18.3121 15.0572 18.4074C14.8666 18.598 14.6124 18.598 14.4218 18.598H4.35196C3.24014 18.598 2.60482 18.9474 2.19186 19.7733V25.6501C2.44599 25.9995 2.70012 26.1266 3.01778 25.9677C3.30367 25.8724 3.39897 25.6501 3.39897 25.1418V20.3769C3.39897 20.1545 3.43074 20.0592 3.49427 19.9321C3.6531 19.8369 3.7484 19.7416 3.97076 19.7733H14.4536C15.7878 19.7733 16.3913 19.2015 16.3913 17.8673V14.2778C16.3913 14.0554 16.3913 13.8013 16.5502 13.6424C16.6455 13.5471 16.8678 13.4836 17.122 13.4836H27.5731C28.0178 13.4836 28.2401 13.6424 28.4307 14.0236C28.7484 14.6907 29.0661 15.3578 29.4473 16.0249C29.7649 16.7873 30.1779 17.4862 30.4955 18.2485C30.6544 18.5027 30.7179 18.8839 30.7179 19.1698V27.7466C30.7179 28.4137 30.6544 28.5408 29.9237 28.5408H25.4129C17.1537 28.509 12.4841 28.5408 4.19313 28.5408C4.00253 28.5408 3.71663 28.509 3.58957 28.3502C3.43074 28.1596 3.39897 27.9055 3.43074 27.7149V25.3324C3.43074 24.8559 3.36721 24.6018 3.04954 24.4747C2.76365 24.3159 2.50952 24.5065 2.22362 24.7606V28.5408C2.57305 29.3985 3.24014 29.7479 4.25666 29.7479H4.32019C7.27445 29.7161 6.63913 29.7161 9.56162 29.7161H13.6595V31.7174H4.79669C3.39897 31.7809 2.06479 32.4798 1.14357 33.6234C0.222353 34.7987 -0.190608 36.3235 0.0635218 37.753C0.571781 40.3578 2.63658 42.0732 5.36848 42.105H38.31C39.3265 42.105 40.1842 41.8826 41.0102 41.4379C43.0114 40.326 44.0597 38.0389 43.5514 35.8152C43.0114 33.5281 41.0737 31.8445 38.8183 31.7492H29.7014C29.479 31.7492 29.1614 31.5586 29.1296 31.368C29.0978 31.0503 29.1296 30.7009 29.1296 30.3197V29.7479H29.8602C30.4638 29.8114 30.972 29.6844 31.3215 29.3667C31.7027 28.9855 31.925 28.4455 31.925 27.7466C31.8933 26.2536 31.8933 24.7606 31.8933 23.2994V19.2651C31.8615 18.7568 31.7344 18.2168 31.5438 17.6767C31.0991 16.692 30.6226 15.7072 30.1461 14.7225C29.9237 14.2778 29.6696 13.833 29.479 13.3565C29.1931 12.8165 28.8437 12.4671 28.3354 12.3083C28.1766 12.2765 28.0178 12.0859 28.0178 11.9271C28.0178 11.7682 28.1131 11.5776 28.2719 11.4506C28.5578 11.2917 28.8119 11.1964 29.0661 11.0058L29.352 10.9106L37.7065 6.43152L38.7865 8.43279C40.5337 11.8318 42.3126 15.2625 44.0915 18.6615L44.155 18.8203L43.8056 18.9792C43.8056 18.9792 43.5832 19.138 43.4879 19.1698L41.6137 19.9639C40.1207 20.5992 38.5959 21.2981 37.1347 21.9017C36.4994 22.1875 36.2452 22.5052 36.2452 23.0135C36.2135 23.5853 36.4994 23.9347 37.1029 24.2206C39.263 25.1418 41.3596 26.1583 43.5197 27.0795C44.5044 27.556 45.4257 27.556 46.3469 27.1748C47.014 26.8889 47.554 26.6666 48.0305 26.4125C49.7776 25.5865 50.4765 23.8712 49.6823 22.0605V22.124ZM14.8983 31.0186V29.8114H27.8907V31.7809H15.629C15.4066 31.7809 15.1525 31.7809 15.0254 31.5586C14.8666 31.3997 14.8666 31.1774 14.9301 31.0186H14.8983ZM38.0877 32.9563H38.1194C39.9936 32.9563 41.3278 33.6869 42.0584 35.2117C42.662 36.3235 42.6302 37.7212 41.9949 38.8648C41.3596 40.0084 40.216 40.7708 38.9454 40.8343C38.5642 40.8661 38.183 40.8978 37.8335 40.8978H5.52731C3.97076 40.8978 2.82718 40.3896 2.03303 39.3095C1.11181 38.1024 0.921209 36.7047 1.52477 35.2752C2.16009 33.9093 3.27191 33.1151 4.82845 32.9563C5.05082 32.9245 5.30494 32.9245 5.59084 32.9245H38.0559L38.0877 32.9563ZM26.7471 12.2447H20.1715V11.26C20.1715 10.4341 20.1715 9.6399 20.2033 8.87751C20.2033 8.62338 20.5845 8.27396 20.8386 8.27396H20.9974C22.0457 8.21042 23.1258 8.21042 24.1423 8.27396C25.6035 8.46455 26.6836 9.60814 26.7154 11.1011C26.7471 11.3235 26.7471 11.4823 26.7471 11.7047V12.213V12.2447ZM28.0495 10.2752L26.3342 7.6704L36.2135 3.60432L37.1347 5.44676L28.0495 10.307V10.2752ZM47.3952 25.4595L46.8234 25.7136C45.9339 26.063 45.4892 26.2854 45.0445 26.2854C44.5997 26.2854 44.1232 26.063 43.202 25.6818L42.7255 25.4595C41.6137 24.9512 40.5654 24.5065 39.4536 23.9982L37.4523 23.077L46.9187 18.9792L47.0775 19.2333C47.0775 19.2333 47.1728 19.4239 47.1728 19.4557L47.4905 20.1863C47.8399 21.0122 48.2211 21.8064 48.5387 22.6005C49.0788 23.9029 48.634 24.9194 47.3952 25.523V25.4595Z" fill="white"/>
<path d="M28.0496 16.8505C27.7637 16.4057 27.5731 15.961 27.3825 15.4845C27.1919 15.008 26.8742 14.7539 26.2707 14.7539H19.028C18.2656 14.7539 17.9797 15.0398 17.9797 15.834V16.5963C17.9797 17.3587 17.9797 18.1847 18.0114 18.9788C18.0114 19.2965 18.1703 19.6459 18.3609 19.9C19.0915 20.6624 19.9174 21.4883 20.7751 22.219C20.9975 22.4413 21.3469 22.5684 21.6328 22.5684C23.6023 22.6002 25.5718 22.6002 27.5095 22.6002H28.0813C28.7484 22.6002 29.0025 22.3143 29.0978 21.5836C29.2567 19.6777 28.9072 18.1529 28.0496 16.8187V16.8505ZM27.8907 21.0436C27.8907 21.0436 27.859 21.2024 27.859 21.266C27.859 21.266 27.859 21.2977 27.8272 21.2977V21.393H21.9187C21.7281 21.393 21.5375 21.2977 21.3787 21.1389C20.7116 20.5036 20.0127 19.8047 19.4727 19.2329C19.3774 19.1694 19.2186 18.947 19.2186 18.7564V15.961H25.6353C26.0801 15.9293 26.4295 16.0246 26.6201 16.5328C26.8107 17.0728 27.0013 17.5811 27.3507 18.0258C27.986 18.947 27.9543 20.0271 27.9225 21.0118L27.8907 21.0436Z" fill="white"/>
<path d="M21.0292 24.6021C21.0292 24.9198 20.8386 25.1104 20.4892 25.1421H18.6785C18.3291 25.1421 18.1067 24.9198 18.075 24.5704C18.075 24.4115 18.075 24.2527 18.202 24.1256C18.2973 24.0303 18.3926 23.9986 18.5197 23.9668C18.8691 23.9668 19.2186 23.9668 19.5362 23.9668C19.9174 23.9668 20.2668 23.9668 20.5845 23.9668C20.7116 23.9668 20.8069 24.0303 20.9022 24.1256C20.9975 24.2209 21.0292 24.4115 20.9975 24.6021H21.0292Z" fill="white"/>
<path d="M37.8017 34.2266C36.3723 34.2266 35.1016 35.4337 35.0699 36.8949C35.0699 37.6255 35.3558 38.2926 35.8958 38.8327C36.4358 39.3409 37.1029 39.6586 37.8017 39.6586H37.8335C39.263 39.6268 40.5336 38.3562 40.5019 36.8949C40.5019 35.4654 39.2948 34.2266 37.8017 34.2266ZM38.8183 38.0067C38.5324 38.2926 38.1829 38.4515 37.77 38.4515C37.357 38.4515 36.9758 38.2926 36.6899 37.975C36.4358 37.6891 36.2452 37.3397 36.2452 36.8949C36.2452 36.1008 36.9123 35.4337 37.7382 35.4337H37.77C38.5641 35.4337 39.2312 36.1643 39.2312 36.9267C39.2312 37.3714 39.0406 37.7208 38.7547 38.0067H38.8183Z" fill="white"/>
<path d="M5.97204 34.2266H5.90851C5.24142 34.2266 4.54257 34.5125 4.03431 35.0207C3.49428 35.4972 3.17662 36.1961 3.20839 36.9267C3.20839 38.3879 4.47903 39.6586 5.90851 39.6586H5.94028C7.36976 39.6586 8.60864 38.4515 8.64041 36.9267C8.64041 35.4972 7.43329 34.2266 5.97204 34.2266ZM6.92503 38.0385C6.63914 38.2926 6.28971 38.4197 5.90851 38.4197H5.87675C5.49555 38.4197 5.08259 38.2609 4.7967 37.9432C4.54257 37.6573 4.35197 37.3079 4.35197 36.8632C4.38373 36.482 4.54257 36.1008 4.82846 35.8149C5.11436 35.529 5.46379 35.3701 5.87675 35.3701H5.90851C6.73443 35.4019 7.36976 36.1008 7.36976 36.9267C7.36976 37.3079 7.17916 37.7208 6.89326 38.0067L6.92503 38.0385Z" fill="white"/>
<path d="M32.5921 36.3242H11.1181C10.7848 36.3242 10.5146 36.5944 10.5146 36.9278C10.5146 37.2611 10.7848 37.5313 11.1181 37.5313H32.5921C32.9254 37.5313 33.1957 37.2611 33.1957 36.9278C33.1957 36.5944 32.9254 36.3242 32.5921 36.3242Z" fill="white"/>
</g>
<defs>
<clipPath id="clip0_3223_1592">
<rect width="50" height="41.9949" fill="white" transform="translate(0 0.142578)"/>
</clipPath>
</defs>
</svg>
