<svg width="50" height="35" viewBox="0 0 50 35" fill="none" xmlns="http://www.w3.org/2000/svg">
<g clip-path="url(#clip0_3223_1580)">
<path d="M40.2112 10.9078L33.8474 0.599609L28.29 2.48399L24.9844 8.85576H18.7005L8.82342 22.8369L4.11247 24.1304L0.599213 30.6619" stroke="white" stroke-width="1.5" stroke-linecap="round" stroke-linejoin="round"/>
<path d="M23.6111 27.7951L28.7692 22.2617" stroke="white" stroke-width="1.5" stroke-linecap="round" stroke-linejoin="round"/>
<path d="M35.6276 18.5575C35.6276 18.5575 38.2386 14.4055 40.5621 14.3656C42.3587 14.3337 43.3647 16.4416 42.191 18.5575C41.0172 20.6735 42.4784 22.1746 43.9396 21.5598" stroke="white" stroke-width="1.5" stroke-linecap="round" stroke-linejoin="round"/>
<path d="M39.2127 19.7545C39.2127 19.7545 39.1888 19.6986 39.1728 19.6667C39.1009 19.491 39.0131 19.3154 38.9093 19.1557C38.8534 19.0598 38.7815 18.956 38.7177 18.8602C38.6378 18.7325 38.558 18.6127 38.4781 18.4929C38.0629 17.8941 37.6317 17.423 37.2804 17.0637C37.2645 17.0557 37.2565 17.0477 37.2485 17.0397C37.2325 17.0238 37.2006 16.9998 37.1846 16.9838C36.9291 16.7443 36.6656 16.5127 36.3861 16.2971C36.3382 16.2572 36.3143 16.2413 36.3143 16.2413C35.6755 15.7462 34.9808 15.355 34.1983 15.0915C33.2801 14.796 32.5136 14.8998 31.795 15.6823C28.3695 19.3553 24.9042 23.0043 21.4309 26.6373C20.832 27.2601 20.6484 27.9308 20.7601 28.7373C21.1434 31.3882 23.8183 33.8395 26.5011 33.9752C27.2437 34.0231 27.8585 33.8075 28.4015 33.2326C31.9387 29.4559 35.5078 25.7111 39.069 21.9503C39.3165 21.7028 39.4363 21.3914 39.4523 21.04C39.4762 20.5849 39.3724 20.1617 39.2047 19.7625L39.2127 19.7545ZM35.6036 24.6092C33.0166 27.34 30.4296 30.0707 27.8505 32.8095C27.4753 33.2007 27.068 33.3285 26.573 33.2885C25.0319 33.1608 23.7863 32.4501 22.7803 31.3243C22.0058 30.454 21.5027 29.4639 21.4229 28.2821C21.3989 27.8909 21.5027 27.5635 21.7981 27.2521C25.0798 23.8027 28.3536 20.3374 31.6193 16.88C31.6752 16.8241 31.7391 16.7603 31.747 16.7523C32.8409 19.5788 34.8211 21.4393 37.7355 22.3495C37.0329 23.0921 36.3223 23.8506 35.6036 24.6092ZM38.7656 20.9283C38.8055 21.3514 38.566 21.6229 38.1348 21.599C37.7675 21.583 37.3683 21.5271 37.0329 21.3834C35.1325 20.5689 33.7033 19.2275 32.7611 17.391C32.5695 17.0158 32.4337 16.6245 32.4816 16.2013C32.5136 15.834 32.7132 15.6504 33.0725 15.6185C33.5037 15.5705 33.9029 15.6983 34.3021 15.866C34.6615 16.0097 35.0048 16.1933 35.3242 16.4009C35.3402 16.4009 35.3481 16.4169 35.3721 16.4329C37.2485 17.4869 38.1268 19.1397 38.2306 19.3393V19.3633H38.2386C38.3424 19.5469 38.4382 19.7385 38.526 19.9382C38.6538 20.2496 38.7256 20.5929 38.7656 20.9362V20.9283Z" fill="white" stroke="white" stroke-width="0.4" stroke-miterlimit="10"/>
<path d="M8.8233 22.8359L16.0175 21.9496L21.2474 15.498L27.1002 13.7812" stroke="white" stroke-width="1.5" stroke-linecap="round" stroke-linejoin="round"/>
<path d="M41.5206 24.9597L42.2313 27.93L44.0518 24.9597L49.4015 26.4448L47.1738 22.5643L49.4015 19.1947L46.1038 18.8594" stroke="white" stroke-width="1.5" stroke-linecap="round" stroke-linejoin="round"/>
</g>
<defs>
<clipPath id="clip0_3223_1580">
<rect width="50" height="34.1425" fill="white"/>
</clipPath>
</defs>
</svg>
