<svg width="42" height="42" viewBox="0 0 42 42" fill="none" xmlns="http://www.w3.org/2000/svg">
<path d="M19.3817 16.0005C18.8062 16.0006 18.2435 16.1714 17.765 16.4913C17.2865 16.8111 16.9136 17.2657 16.6933 17.7975C16.4731 18.3293 16.4156 18.9144 16.5279 19.4789C16.6402 20.0434 16.9174 20.562 17.3244 20.969C17.7314 21.376 18.2499 21.6531 18.8144 21.7655C19.3789 21.8778 19.9641 21.8202 20.4959 21.6C21.0277 21.3798 21.4822 21.0069 21.8021 20.5283C22.1219 20.0498 22.2927 19.4872 22.2929 18.9116C22.292 18.1398 21.985 17.3998 21.4393 16.8541C20.8935 16.3083 20.1535 16.0014 19.3817 16.0005ZM19.3817 20.5089C19.0657 20.5088 18.7568 20.4149 18.4941 20.2393C18.2314 20.0636 18.0266 19.8139 17.9058 19.5219C17.785 19.2298 17.7535 18.9085 17.8153 18.5986C17.877 18.2886 18.0294 18.0039 18.2529 17.7806C18.4765 17.5572 18.7613 17.4051 19.0713 17.3436C19.3813 17.282 19.7026 17.3138 19.9945 17.4349C20.2865 17.5559 20.5359 17.7609 20.7114 18.0237C20.8869 18.2866 20.9805 18.5956 20.9804 18.9116C20.98 19.3354 20.8114 19.7416 20.5117 20.0412C20.2119 20.3407 19.8055 20.5089 19.3817 20.5089Z" fill="#14161A"/>
<path d="M26.7474 16.4627C26.7923 16.2947 26.7687 16.1158 26.6818 15.9652L25.5832 14.0621C25.4962 13.9114 25.3528 13.8014 25.1847 13.7564C25.0166 13.7113 24.8375 13.7349 24.6868 13.8219L22.6524 14.9953C22.2004 14.6181 21.6867 14.3217 21.1338 14.1192V11.7725C21.1338 11.5984 21.0647 11.4315 20.9416 11.3084C20.8185 11.1854 20.6516 11.1162 20.4776 11.1162H18.2831C18.109 11.1162 17.9421 11.1854 17.819 11.3084C17.696 11.4315 17.6268 11.5984 17.6268 11.7725V14.1199C17.0741 14.3225 16.5604 14.6188 16.1083 14.996L14.0739 13.8226C13.9232 13.7356 13.744 13.712 13.5759 13.757C13.4078 13.8021 13.2645 13.9121 13.1774 14.0628L12.0789 15.9659C11.9919 16.1166 11.9683 16.2957 12.0133 16.4639C12.0584 16.632 12.1684 16.7753 12.3191 16.8623L14.3534 18.0351C14.2484 18.6153 14.2484 19.2096 14.3534 19.7899L12.3191 20.9626C12.1684 21.0496 12.0584 21.1929 12.0133 21.3611C11.9683 21.5292 11.9919 21.7083 12.0789 21.859L13.1774 23.7621C13.2205 23.8368 13.2778 23.9023 13.3462 23.9548C13.4145 24.0074 13.4925 24.0459 13.5758 24.0683C13.659 24.0906 13.7459 24.0964 13.8313 24.0852C13.9168 24.074 13.9992 24.0461 14.0739 24.003L16.1083 22.8296C17.0255 23.5989 18.1845 24.0206 19.3816 24.0206C20.5788 24.0206 21.7377 23.5989 22.655 22.8296L24.6894 24.003C24.7641 24.0461 24.8465 24.074 24.9319 24.0852C25.0174 24.0964 25.1043 24.0906 25.1875 24.0683C25.2707 24.0459 25.3488 24.0074 25.4171 23.9548C25.4855 23.9023 25.5428 23.8368 25.5858 23.7621L26.6844 21.859C26.7714 21.7083 26.795 21.5292 26.7499 21.3611C26.7049 21.1929 26.5949 21.0496 26.4442 20.9626L24.4124 19.7892C24.5166 19.2087 24.5166 18.6143 24.4124 18.0337L26.4435 16.8617C26.5933 16.7738 26.7025 16.6304 26.7474 16.4627ZM23.3349 17.1393C23.2085 17.2122 23.11 17.3251 23.055 17.4602C23 17.5954 22.9915 17.745 23.031 17.8854C23.224 18.5556 23.224 19.2667 23.031 19.9369C22.9913 20.0773 22.9996 20.227 23.0545 20.3623C23.1094 20.4976 23.2078 20.6107 23.3342 20.6837L25.2164 21.7704L24.774 22.5356L22.8919 21.4489C22.7656 21.3759 22.6185 21.3472 22.474 21.3671C22.3295 21.3871 22.1958 21.4547 22.0939 21.5591C21.7415 21.9221 21.3198 22.2107 20.8538 22.4078C20.3877 22.6048 19.8869 22.7064 19.381 22.7064C18.875 22.7064 18.3742 22.6048 17.9082 22.4078C17.4422 22.2107 17.0205 21.9221 16.668 21.5591C16.5663 21.4548 16.4326 21.3874 16.2883 21.3674C16.1439 21.3474 15.997 21.3761 15.8707 21.4489L13.9873 22.5356L13.5456 21.7704L15.4277 20.6837C15.5541 20.6108 15.6526 20.4978 15.7076 20.3627C15.7627 20.2276 15.7711 20.078 15.7316 19.9375C15.5373 19.2673 15.5373 18.5557 15.7316 17.8854C15.7709 17.7451 15.7624 17.5956 15.7074 17.4606C15.6524 17.3256 15.554 17.2128 15.4277 17.1399L13.5456 16.0525L13.9873 15.2873L15.87 16.3747C15.9963 16.4475 16.1432 16.4762 16.2876 16.4562C16.432 16.4363 16.5656 16.3688 16.6674 16.2645C17.1543 15.7658 17.7692 15.4109 18.4445 15.2388C18.5858 15.2028 18.7111 15.1207 18.8006 15.0055C18.8901 14.8904 18.9387 14.7487 18.9387 14.6029V12.4287H19.8226V14.6029C19.8226 14.7487 19.8712 14.8904 19.9607 15.0055C20.0502 15.1207 20.1755 15.2028 20.3168 15.2388C20.9922 15.4108 21.6071 15.7657 22.0939 16.2645C22.1961 16.3684 22.3298 16.4355 22.4742 16.4554C22.6185 16.4754 22.7654 16.447 22.8919 16.3747L24.7747 15.2906L25.217 16.0558L23.3349 17.1393Z" fill="#14161A"/>
<path d="M35.5995 6.99957C35.465 6.78368 35.2775 6.60571 35.055 6.48249C34.8324 6.35927 34.5821 6.29488 34.3277 6.29541C34.0732 6.29483 33.8228 6.35912 33.6 6.48221C33.3773 6.6053 33.1895 6.78313 33.0546 6.99891L32.7068 7.5541H4.21963C3.62163 7.56154 3.05097 7.80576 2.63273 8.23323C2.21449 8.6607 1.98278 9.23655 1.98838 9.83457V28.7634C1.98278 29.3615 2.21449 29.9373 2.63273 30.3648C3.05097 30.7923 3.62163 31.0365 4.21963 31.0439H13.9124V33.6309H13.2496C12.3479 33.6319 11.4833 33.9906 10.8457 34.6282C10.208 35.2659 9.84933 36.1304 9.84829 37.0322C9.84829 37.2062 9.91743 37.3732 10.0405 37.4962C10.1636 37.6193 10.3305 37.6884 10.5045 37.6884H28.2587C28.4328 37.6884 28.5997 37.6193 28.7228 37.4962C28.8458 37.3732 28.915 37.2062 28.915 37.0322C28.9138 36.1302 28.5548 35.2656 27.9169 34.628C27.279 33.9903 26.4143 33.6317 25.5123 33.6309H24.8495V31.0439H34.5443C35.1423 31.0366 35.7131 30.7925 36.1314 30.365C36.5497 29.9375 36.7813 29.3615 36.7755 28.7634V18.5916H40.1552C40.423 18.5912 40.6859 18.5192 40.9165 18.3831C41.1471 18.2469 41.3372 18.0516 41.467 17.8174C41.5967 17.5831 41.6615 17.3184 41.6546 17.0507C41.6477 16.783 41.5694 16.522 41.4277 16.2947L35.5995 6.99957ZM3.30022 28.7634V27.8014H17.6025C17.4564 28.1063 17.3901 28.4433 17.4097 28.7809C17.4293 29.1184 17.5343 29.4455 17.7148 29.7314H4.21963C3.96949 29.7245 3.73228 29.6188 3.55995 29.4374C3.38762 29.2559 3.29423 29.0136 3.30022 28.7634ZM19.3816 29.3652C19.2407 29.3738 19.1005 29.3398 18.9791 29.2677C18.8577 29.1956 18.7607 29.0887 18.7008 28.9609C18.6409 28.833 18.6207 28.6901 18.643 28.5507C18.6652 28.4113 18.7288 28.2817 18.8255 28.1789C18.9222 28.076 19.0476 28.0046 19.1854 27.9738C19.3232 27.9431 19.4671 27.9544 19.5984 28.0064C19.7296 28.0583 19.8423 28.1485 19.9217 28.2652C20.0011 28.382 20.0437 28.5199 20.0438 28.6611C20.0487 28.8421 19.9819 29.0177 19.8579 29.1496C19.7338 29.2816 19.5626 29.3591 19.3816 29.3652ZM27.4968 36.3759H11.2671C11.4056 35.9593 11.6716 35.5968 12.0276 35.3397C12.3835 35.0826 12.8112 34.9439 13.2503 34.9434H25.5123C25.9516 34.9438 26.3795 35.0824 26.7357 35.3395C27.0918 35.5966 27.3581 35.9592 27.4968 36.3759ZM23.5377 33.6309H15.2249V31.0439H23.537L23.5377 33.6309ZM34.5449 29.7314H21.0485C21.2287 29.4454 21.3334 29.1183 21.3529 28.7808C21.3725 28.4433 21.3061 28.1063 21.1601 27.8014H35.4624V28.7634C35.4684 29.0134 35.3752 29.2555 35.2031 29.4369C35.0311 29.6183 34.7948 29.7242 34.5449 29.7314ZM35.4637 26.4889H3.30022V9.83523C3.29405 9.58513 3.3873 9.34279 3.55952 9.16134C3.73175 8.97989 3.9689 8.87413 4.21897 8.86726H31.8825L27.2232 16.2921C27.0816 16.5195 27.0035 16.7806 26.9967 17.0483C26.99 17.3161 27.0549 17.5807 27.1848 17.815C27.3147 18.0492 27.5048 18.2445 27.7355 18.3805C27.9662 18.5166 28.2291 18.5886 28.4969 18.5889H35.4624L35.4637 26.4889ZM40.3199 17.1819C40.3044 17.2122 40.2807 17.2375 40.2514 17.2548C40.2221 17.2721 40.1886 17.2807 40.1546 17.2797H28.4989C28.465 17.2797 28.4317 17.2706 28.4025 17.2534C28.3733 17.2362 28.3492 17.2114 28.3328 17.1818C28.3163 17.1522 28.3081 17.1187 28.3089 17.0848C28.3097 17.0509 28.3196 17.0178 28.3375 16.989L34.1656 7.69716C34.1828 7.66991 34.2065 7.64745 34.2347 7.63189C34.2629 7.61632 34.2945 7.60816 34.3267 7.60816C34.3589 7.60816 34.3906 7.61632 34.4188 7.63189C34.4469 7.64745 34.4707 7.66991 34.4879 7.69716L40.3153 16.989C40.3344 17.0174 40.345 17.0506 40.3458 17.0848C40.3467 17.119 40.3377 17.1527 40.3199 17.1819Z" fill="#14161A"/>
<path d="M33.6086 14.9585H34.9546V16.3694H33.6086V14.9585Z" fill="#14161A"/>
<path d="M34.7131 14.272L34.9356 11.626V9.9834H33.6736V11.626L33.8961 14.272H34.7131Z" fill="#14161A"/>
</svg>
