<svg width="150" height="43" viewBox="0 0 150 43" fill="none" xmlns="http://www.w3.org/2000/svg">
<path d="M10.6 0C4.74162 0 0 4.75078 0 10.6V31.8C0 37.6584 4.74162 42.4 10.6 42.4H31.8C37.6584 42.4 42.4 37.6584 42.4 31.8V0H10.6Z" fill="#92E12E"/>
<path d="M11.1359 16.927C10.7853 15.4096 12.3075 14.075 14.2818 14.075C16.0624 14.075 17.843 14.4681 18.5164 16.927H20.7952V20.6748C17.9537 18.353 11.8001 19.8064 11.1359 16.927ZM34.7629 15.8849H29.6334L24.753 21.1775V10.6015H20.7952V13.1701C20.666 13.0056 20.5276 12.841 20.38 12.6765C18.9408 11.1682 16.865 10.4004 14.2173 10.4004C11.1543 10.4004 9.40145 11.7624 8.47887 12.905C7.33489 14.3218 6.81825 16.2506 7.17805 17.832C8.09139 21.9088 11.9201 22.5578 14.7247 22.9235C16.9388 23.2068 19.0608 23.609 19.0054 25.5652C18.95 27.5945 16.6344 28.0972 15.1214 28.0972C11.1728 28.0972 11.0436 25.2087 11.0436 25.2087H6.7998C6.86438 26.2965 7.19651 28.0332 8.54346 29.5323C10.0196 31.1686 12.2337 32.0004 15.1306 32.0004C17.354 32.0004 19.3744 31.2874 20.8229 30.0077V31.7536H24.7807V26.7626L26.183 25.2452L30.1869 31.7627H34.7998L28.9784 22.2196L34.7629 15.8849Z" fill="#4A5759"/>
<path d="M59.5251 20.0188C59.4159 19.8196 59.2613 19.6294 59.1066 19.4302C58.9338 19.2581 58.7337 19.0861 58.4699 18.9321C58.2333 18.7782 57.924 18.6695 57.5784 18.5608C57.2327 18.4703 56.8324 18.425 56.3503 18.425C56.1502 18.425 55.9136 18.4522 55.6498 18.4884C55.386 18.5518 55.104 18.6423 54.822 18.7691C54.54 18.9231 54.258 19.1132 53.9669 19.3578C53.7031 19.5932 53.4393 19.9192 53.2483 20.3177C53.0118 20.7342 52.8298 21.2142 52.7025 21.7756C52.5751 22.3371 52.5023 23.0163 52.5023 23.8041C52.5023 24.6554 52.5933 25.3889 52.7662 26.0681C52.939 26.7382 53.2028 27.3087 53.5303 27.7615C53.8578 28.2233 54.2762 28.5675 54.7583 28.8029C55.2132 29.0384 55.759 29.1742 56.3503 29.1742C57.0507 29.1742 57.5966 29.0655 58.0332 28.8663C58.4699 28.649 58.8155 28.3864 59.0793 28.0785C59.3431 27.7706 59.5342 27.4446 59.6434 27.1185C59.7707 26.7925 59.8799 26.4846 59.9435 26.2492H63.2002C63.0274 27.2272 62.7454 28.0785 62.3269 28.7939C61.9085 29.5093 61.4081 30.0979 60.8168 30.5778C60.2255 31.0578 59.5706 31.4019 58.8246 31.6464C58.0787 31.8819 57.2964 31.9996 56.4595 31.9996C55.3042 31.9996 54.2489 31.8004 53.3575 31.411C52.4569 31.0397 51.6927 30.4782 51.0832 29.7809C50.4738 29.0655 50.0098 28.1962 49.6823 27.1729C49.3548 26.1677 49.2002 25.0357 49.2002 23.8041C49.2002 22.8442 49.2912 21.9749 49.4822 21.1961C49.655 20.4173 49.9188 19.72 50.2463 19.1042C50.5738 18.4975 50.965 17.9903 51.4289 17.5375C51.8656 17.1029 52.3477 16.7316 52.8935 16.4509C53.4211 16.1701 53.9669 15.9528 54.5582 15.7988C55.1495 15.6721 55.7408 15.5996 56.3321 15.5996C57.1872 15.5996 57.9513 15.6902 58.6063 15.8622C59.2613 16.0615 59.8526 16.2788 60.3529 16.5776C60.8532 16.8855 61.2717 17.2115 61.6174 17.6009C61.963 17.9903 62.2723 18.3888 62.4906 18.7782C62.709 19.1947 62.8636 19.6023 62.991 20.0007C63.1001 20.4173 63.1638 20.7795 63.1911 21.1327H59.9163L59.7616 20.6074C59.7161 20.4082 59.6343 20.2362 59.5251 20.0188Z" fill="white"/>
<path d="M72.175 20.4004H76.1995L71.392 25.2201L76.3998 32.0004H72.4573L69.0519 27.099L67.8227 28.3425V32.0004H64.7998V20.4004H67.8227V24.8026L72.175 20.4004Z" fill="white"/>
<path d="M79.3303 27.0854C79.422 27.5246 79.5688 27.9181 79.8165 28.2476C80.0367 28.5953 80.3211 28.8882 80.6789 29.0803C81.0275 29.2817 81.4679 29.3915 82 29.3915C82.5505 29.3915 83.0183 29.2817 83.367 29.0803C83.7156 28.879 84.0092 28.5953 84.2293 28.2659C84.4495 27.9364 84.6055 27.5612 84.6881 27.122C84.7798 26.6827 84.8165 26.2434 84.8165 25.7767C84.8165 25.3192 84.7706 24.8708 84.6881 24.4315C84.5963 23.9922 84.4495 23.5987 84.2293 23.2693C84.0092 22.9398 83.7248 22.6744 83.367 22.4548C83.0183 22.2535 82.5505 22.1711 82 22.1711C81.4679 22.1711 81.0275 22.2809 80.6789 22.4823C80.3303 22.6836 80.0367 22.9673 79.8165 23.2967C79.578 23.6536 79.422 24.0197 79.3303 24.4589C79.2385 24.8982 79.1743 25.3375 79.1743 25.7767C79.1743 26.216 79.2477 26.6644 79.3303 27.0854ZM76.422 23.3059C76.6881 22.5372 77.0826 21.8783 77.6147 21.3292C78.1468 20.7801 78.7615 20.3592 79.5138 20.0572C80.2661 19.746 81.0826 19.5996 82.0092 19.5996C82.9541 19.5996 83.7982 19.7552 84.5413 20.0572C85.2936 20.3683 85.9082 20.7801 86.4128 21.3292C86.9174 21.8783 87.3211 22.5372 87.6055 23.3059C87.8716 24.0563 88 24.8891 88 25.795C88 26.701 87.8716 27.5338 87.6055 28.2842C87.3211 29.0529 86.9266 29.7118 86.4128 30.2609C85.9082 30.7916 85.2844 31.2309 84.5413 31.5329C83.789 31.844 82.9541 31.9996 82.0092 31.9996C81.0826 31.9996 80.2661 31.844 79.5138 31.5329C78.7615 31.2217 78.1468 30.7825 77.6147 30.2609C77.0826 29.7118 76.6881 29.0529 76.422 28.2842C76.156 27.5338 76 26.701 76 25.795C76 24.8891 76.156 24.0471 76.422 23.3059Z" fill="white"/>
<path d="M93.5885 22.7785L93.5441 24.8748C93.4998 26.0639 93.42 27.0944 93.3135 27.984C93.1894 28.8736 92.9943 29.6134 92.7371 30.2036C92.4622 30.7937 92.0986 31.2429 91.6463 31.56C91.2028 31.8595 90.5998 32.0004 89.8992 32.0004C89.5533 32.0004 89.2784 31.974 89.0212 31.9563C88.764 31.9123 88.5778 31.8507 88.4004 31.789V29.3316C88.5068 29.3756 88.6399 29.4197 88.7818 29.4549C88.9325 29.4725 89.101 29.4989 89.3138 29.4989C89.5533 29.4989 89.7395 29.4373 89.908 29.2876C90.0765 29.1642 90.2273 28.9264 90.3603 28.5653C90.4934 28.2042 90.5732 27.7198 90.6619 27.0856C90.724 26.4514 90.7683 25.6499 90.7949 24.6546L90.8836 20.4004H100V31.6569H97.0826V22.7785H93.5885Z" fill="white"/>
<path d="M109.521 20.4004H113.407L108.765 25.2201L113.6 32.0004H109.794L106.506 27.099L105.319 28.3425V32.0004H102.4V20.4004H105.319V24.8026L109.521 20.4004Z" fill="white"/>
<path d="M116.641 27.0854C116.736 27.5246 116.888 27.9181 117.144 28.2476C117.371 28.5953 117.665 28.8882 118.035 29.0803C118.395 29.2817 118.85 29.3915 119.4 29.3915C119.969 29.3915 120.452 29.2817 120.813 29.0803C121.173 28.879 121.476 28.5953 121.704 28.2659C121.931 27.9364 122.093 27.5612 122.178 27.122C122.273 26.6827 122.311 26.2434 122.311 25.7767C122.311 25.3192 122.263 24.8708 122.178 24.4315C122.083 23.9922 121.931 23.5987 121.704 23.2693C121.476 22.9398 121.182 22.6744 120.813 22.4548C120.452 22.2535 119.969 22.1711 119.4 22.1711C118.85 22.1711 118.395 22.2809 118.035 22.4823C117.675 22.6836 117.371 22.9673 117.144 23.2967C116.897 23.6536 116.736 24.0197 116.641 24.4589C116.547 24.8982 116.48 25.3375 116.48 25.7767C116.48 26.216 116.547 26.6644 116.641 27.0854ZM113.636 23.3059C113.911 22.5372 114.319 21.8783 114.869 21.3292C115.419 20.7801 116.054 20.3592 116.831 20.0572C117.608 19.746 118.452 19.5996 119.41 19.5996C120.386 19.5996 121.258 19.7552 122.026 20.0572C122.804 20.3683 123.439 20.7801 123.96 21.3292C124.482 21.8783 124.899 22.5372 125.193 23.3059C125.467 24.0563 125.6 24.8891 125.6 25.795C125.6 26.701 125.467 27.5338 125.193 28.2842C124.899 29.0529 124.491 29.7118 123.96 30.2609C123.439 30.7916 122.794 31.2309 122.026 31.5329C121.249 31.844 120.386 31.9996 119.41 31.9996C118.452 31.9996 117.608 31.844 116.831 31.5329C116.054 31.2217 115.419 30.7825 114.869 30.2609C114.319 29.7118 113.911 29.0529 113.636 28.2842C113.361 27.5338 113.2 26.701 113.2 25.795C113.2 24.8891 113.361 24.0471 113.636 23.3059Z" fill="white"/>
<path d="M133.142 29.7239C133.403 29.6151 133.592 29.5063 133.745 29.3521C133.871 29.2251 133.979 29.0709 134.024 28.8986C134.069 28.7263 134.087 28.5721 134.087 28.4179C134.087 28.1367 134.069 27.8919 133.979 27.7014C133.916 27.5291 133.808 27.3749 133.637 27.2661C133.484 27.13 133.268 27.0665 133.007 27.0303C132.747 26.9849 132.45 26.9668 132.081 26.9668H129.787V29.86H132.081C132.513 29.86 132.881 29.8146 133.142 29.7239ZM132.944 24.8626C133.16 24.7991 133.331 24.7357 133.466 24.6268C133.592 24.5361 133.709 24.4091 133.745 24.255C133.808 24.1008 133.835 23.9103 133.835 23.7108C133.835 23.5385 133.817 23.3843 133.745 23.2301C133.7 23.1031 133.592 22.9671 133.466 22.8582C133.358 22.7676 133.187 22.6859 132.971 22.6224C132.756 22.559 132.495 22.5317 132.171 22.5317H129.796V24.9533H132.09C132.423 24.9533 132.711 24.908 132.944 24.8626ZM134.285 20.5274C134.762 20.6362 135.194 20.7904 135.58 21.0081C135.949 21.2439 136.255 21.5522 136.471 21.9422C136.687 22.3322 136.795 22.831 136.795 23.4478C136.795 23.7924 136.777 24.1008 136.687 24.3457C136.624 24.6087 136.516 24.8263 136.381 24.9987C136.255 25.1982 136.102 25.3524 135.949 25.4612C135.778 25.5882 135.625 25.697 135.427 25.7877C136.012 25.9873 136.444 26.3138 136.741 26.7672C137.038 27.2207 137.2 27.7468 137.2 28.3816C137.2 28.9258 137.11 29.4246 136.939 29.86C136.741 30.2953 136.489 30.6853 136.138 30.9937C135.796 31.3202 135.382 31.556 134.888 31.7374C134.393 31.9097 133.853 32.0004 133.241 32.0004H126.8V20.4004H132.747C133.286 20.4004 133.79 20.4457 134.285 20.5274Z" fill="white"/>
<path d="M141.622 27.0854C141.711 27.5246 141.853 27.9181 142.093 28.2476C142.306 28.5953 142.581 28.8882 142.927 29.0803C143.264 29.2817 143.69 29.3915 144.205 29.3915C144.737 29.3915 145.19 29.2817 145.527 29.0803C145.865 28.879 146.149 28.5953 146.362 28.2659C146.575 27.9364 146.725 27.5612 146.814 27.122C146.903 26.6827 146.938 26.2434 146.938 25.7767C146.938 25.3192 146.894 24.8708 146.814 24.4315C146.725 23.9922 146.583 23.5987 146.362 23.2693C146.149 22.9398 145.873 22.6744 145.527 22.4548C145.19 22.2535 144.737 22.1711 144.205 22.1711C143.69 22.1711 143.264 22.2809 142.927 22.4823C142.581 22.6836 142.306 22.9673 142.093 23.2967C141.862 23.6536 141.711 24.0197 141.622 24.4589C141.533 24.8982 141.471 25.3375 141.471 25.7767C141.471 26.216 141.533 26.6644 141.622 27.0854ZM138.809 23.3059C139.066 22.5372 139.448 21.8783 139.962 21.3292C140.477 20.7801 141.072 20.3592 141.8 20.0572C142.527 19.746 143.317 19.5996 144.205 19.5996C145.119 19.5996 145.936 19.7552 146.654 20.0572C147.382 20.3683 147.977 20.7801 148.465 21.3292C148.953 21.8783 149.344 22.5372 149.619 23.3059C149.876 24.0563 150 24.8891 150 25.795C150 26.701 149.876 27.5338 149.619 28.2842C149.344 29.0529 148.953 29.7118 148.465 30.2609C147.977 30.7916 147.373 31.2309 146.654 31.5329C145.927 31.844 145.119 31.9996 144.205 31.9996C143.308 31.9996 142.519 31.844 141.8 31.5329C141.072 31.2217 140.477 30.7825 139.962 30.2609C139.448 29.7118 139.066 29.0529 138.809 28.2842C138.551 27.5338 138.4 26.701 138.4 25.795C138.4 24.8891 138.551 24.0471 138.809 23.3059Z" fill="white"/>
</svg>
