<svg width="51" height="50" viewBox="0 0 51 50" fill="none" xmlns="http://www.w3.org/2000/svg">
<g clip-path="url(#clip0_3223_1569)">
<path d="M47.8184 44.1936V18.2963C47.8184 18.0149 47.8184 17.6982 47.7129 17.5222C47.4666 17.1 47.1499 16.8185 47.0091 16.8185C45.8128 16.7481 44.5813 16.7833 43.4201 16.7833H42.3645V18.3667H46.0943V44.1936H28.1492C27.6214 44.1936 27.4103 44.2992 27.2695 44.6158C26.988 45.2492 26.425 45.3548 26.0028 45.3548H25.8972C25.0176 45.3196 24.0324 45.3196 22.8712 45.3548C22.4842 45.3548 21.9212 45.2844 21.6397 44.6862C21.4989 44.2992 21.2526 44.1936 20.6545 44.1936H3.76495V18.226H7.49472V16.6426H5.2076C4.4335 16.6426 3.65939 16.6426 2.88529 16.6426C2.70936 16.6778 2.39268 16.9593 2.18156 17.2759C2.076 17.4871 2.076 17.8389 2.076 18.1556V44.1936H0L0.140746 45.0381C0.281492 45.8122 0.387051 47.1493 0.562984 47.8882C0.844476 49.4716 1.47783 49.9642 3.09641 49.9642H47.5017C48.1351 49.8938 48.9444 49.6475 49.1555 48.8734C49.437 47.853 49.6129 46.2696 49.8241 45.214C49.8944 44.8621 49.9648 44.5103 50.0352 44.1584H47.8184V44.1936ZM47.9592 46.164C47.9592 46.164 47.924 46.4103 47.924 46.5159C47.8888 46.7622 47.8536 47.6067 47.7832 47.853C47.7129 48.1345 47.361 48.2752 47.1851 48.3456H3.62421C2.25193 48.3456 2.14638 47.6771 2.076 46.164V45.9177L19.6692 45.8122C20.0563 45.8122 20.6193 45.8826 20.9008 46.5159C21.0767 46.8326 21.2878 46.9381 21.7101 46.9381H27.164C27.5862 46.9381 27.7621 46.8326 27.9029 46.5511C28.2196 45.8826 28.8177 45.8122 29.2752 45.8122H29.3103L47.9944 45.8826V46.164H47.9592Z" fill="white"/>
<path d="M41.696 40.4295C41.696 40.4295 41.4849 40.3591 41.2034 40.3591H32.7938C32.5827 40.3591 32.3716 40.3591 32.1604 40.3239H31.5271V35.2923C31.5271 34.0607 31.4215 33.8848 30.2956 33.4274L30.1196 33.357V32.9699C30.1196 32.9699 30.2252 32.6533 30.2604 32.4773L30.7882 29.9791C31.316 27.7272 31.8086 25.44 32.3012 23.1881C32.3012 23.0122 32.2308 22.7307 32.1253 22.5196C31.879 22.2029 31.6327 21.8862 31.3863 21.5695C31.1049 21.1825 30.7882 20.7954 30.5067 20.3732C29.3807 18.5083 28.5362 16.4675 27.9381 14.0396C27.9029 13.8989 27.7973 13.7229 27.7269 13.6878C27.2343 13.6526 26.7065 13.6878 26.1436 13.6878H25.7917V15.06H24.0676V13.6878H23.2583C23.0471 13.6878 22.836 13.6878 22.6249 13.6526C22.1323 13.6174 21.9564 13.7229 21.8508 14.2859C21.0767 17.5583 19.7396 20.2676 17.7692 22.5547C17.6284 22.6955 17.5581 22.977 17.5932 23.1881C17.8044 24.3844 18.0507 25.5808 18.297 26.7419L19.6341 33.357L19.4581 33.4626C18.5785 33.9552 18.4729 34.1311 18.4729 35.1163V38.3535V40.2887H17.9099C17.6988 40.3591 17.4877 40.3591 17.3118 40.3591H7.98733C7.98733 40.3591 7.67065 40.4999 7.60028 40.535V41.9073H41.696V41.7666C41.696 41.4499 41.696 41.1332 41.7312 40.8517C41.7664 40.6406 41.7312 40.4999 41.696 40.4295ZM25.0176 25.9326C25.475 25.9326 25.8621 26.3197 25.8621 26.8123C25.8621 27.2697 25.475 27.6568 25.0176 27.6568C24.5602 27.6568 24.1731 27.2697 24.1731 26.8123C24.1731 26.3197 24.5602 25.9326 25.0176 25.9326ZM19.5637 24.8419C19.3174 23.7511 19.4933 22.977 20.1267 22.1325C21.2878 20.6195 22.2027 18.7898 23.0471 16.2212C23.0823 16.0452 23.1527 15.8693 23.2583 15.6934L23.4342 15.2711L24.0676 15.4119V15.8341L24.1027 23.7159C24.1027 24.1733 24.0324 24.5604 23.5749 24.8771C22.6601 25.5104 22.3082 26.566 22.6953 27.6216C23.012 28.5364 23.962 29.205 24.9472 29.205C25.9324 29.205 26.8825 28.5013 27.1992 27.5512C27.551 26.5308 27.1992 25.5456 26.2843 24.8067C26.038 24.6307 25.7917 24.3141 25.7917 23.9974C25.7565 21.4288 25.7917 18.825 25.7917 16.2564V15.8341C25.7917 15.8341 25.8269 15.6582 25.8621 15.5526C25.8621 15.5174 25.8973 15.4471 25.9324 15.3767L26.1084 14.8489L26.3899 15.3415C26.3899 15.3415 26.4954 15.5174 26.5658 15.5878C26.6362 15.7286 26.7417 15.8693 26.7769 16.0101C27.6566 18.7546 28.8177 21.0065 30.2956 22.9418C30.4715 23.1881 30.5067 23.5752 30.4715 23.8566C29.6974 27.3753 29.064 30.2254 28.4659 32.8644C28.3955 33.1811 27.9381 33.5329 27.6214 33.5681H24.6657C23.8213 33.5681 22.9416 33.5681 22.0971 33.6033C21.323 33.6033 21.2175 33.0403 21.1471 32.6885C21.0063 31.9847 20.8656 31.2458 20.7248 30.5069C20.3378 28.642 19.9859 26.7068 19.5637 24.8419ZM29.9085 40.0424V40.2887H20.1619V35.2571H20.6193C20.6193 35.2571 20.936 35.1867 21.1119 35.1867H23.6101C25.3695 35.1867 27.1288 35.1867 28.8529 35.1515C29.1344 35.1515 29.4863 35.1867 29.6974 35.3978C29.9085 35.6441 29.9085 35.9608 29.9085 36.1719C29.8733 37.0516 29.8733 37.9312 29.8733 38.8461C29.8733 39.2331 29.9085 39.6202 29.9085 40.0424Z" fill="white"/>
<path d="M28.1492 0.422238L27.7973 1.86488C21.2174 0.879662 16.3617 3.20197 13.4412 8.76144C10.8022 13.7579 11.506 18.7192 15.5172 23.5046C15.1654 23.8916 14.7783 24.2083 14.4265 24.5602C10.5911 21.0415 8.69106 13.8283 12.1041 7.63547C15.2006 2.04082 20.6545 0 24.9472 0C26.1436 0 27.2343 0.140746 28.1492 0.422238Z" fill="white"/>
<path d="M34.5531 3.58937L33.4272 4.78571L31.3512 3.30788L32.1253 1.86523L34.5531 3.58937Z" fill="white"/>
<path d="M38.3181 20.5474L36.8051 23.116L35.5032 22.1308L36.7699 19.9141C37.2625 20.1252 37.7551 20.3363 38.3181 20.5474Z" fill="white"/>
<path d="M38.6348 9.43L37.0866 9.9578L35.9254 7.67068L37.2977 6.79102L38.6348 9.43Z" fill="white"/>
<path d="M39.444 13.582V16.3266L39.3385 16.4673C38.9163 16.4673 38.494 16.3618 38.107 16.2914H37.8958V13.7228L39.444 13.582Z" fill="white"/>
</g>
<defs>
<clipPath id="clip0_3223_1569">
<rect width="50.0352" height="50" fill="white"/>
</clipPath>
</defs>
</svg>
