<svg width="64" height="46" viewBox="0 0 64 46" fill="none" xmlns="http://www.w3.org/2000/svg">
<path d="M23.907 19.3404L30.4817 30.852C30.4817 30.852 30.4817 30.852 30.4827 30.8529C30.9696 31.704 32.197 31.6891 32.668 30.8361L39.0664 19.2251C42.2684 13.4109 37.792 6.74512 31.3911 6.74512C25.128 6.79285 20.559 13.4849 23.907 19.3404ZM31.4024 8.18512H31.4586C36.6297 8.18512 40.4991 13.6428 37.8045 18.5295L31.5674 29.8489L25.1577 18.6261C22.3761 13.7591 26.2059 8.22465 31.4024 8.18512Z" fill="black"/>
<path d="M31.4554 19.7702C33.8414 19.7702 35.7829 17.8287 35.7829 15.4427C35.7829 13.0568 33.8414 11.1152 31.4554 11.1152C29.0695 11.1152 27.1279 13.0568 27.1279 15.4427C27.1279 17.8287 29.0695 19.7702 31.4554 19.7702ZM31.4554 12.5552C33.0473 12.5552 34.3429 13.8509 34.3429 15.4427C34.3429 17.0346 33.0473 18.3302 31.4554 18.3302C29.8636 18.3302 28.5679 17.0346 28.5679 15.4427C28.5679 13.8509 29.8636 12.5552 31.4554 12.5552Z" fill="black"/>
<path d="M49.7309 36.2068C50.0459 35.964 50.104 35.5121 49.8612 35.1971L48.1015 32.9171C47.8596 32.603 47.4059 32.543 47.0918 32.7868C46.7768 33.0296 46.7187 33.4815 46.9615 33.7965L48.7212 36.0765C48.9648 36.3927 49.4195 36.4487 49.7309 36.2068Z" fill="black"/>
<path d="M15.1667 32.3801L13.1398 34.4257C12.8605 34.7088 12.8623 35.1644 13.1445 35.4448C13.4265 35.723 13.8806 35.7231 14.1636 35.4401L16.1905 33.3944C16.4698 33.1113 16.468 32.6557 16.1858 32.3754C15.9017 32.096 15.447 32.0988 15.1667 32.3801Z" fill="black"/>
<path d="M34.878 33.354H28.5696C28.1721 33.354 27.8496 33.6765 27.8496 34.074C27.8496 34.4715 28.1721 34.794 28.5696 34.794H34.878C35.2755 34.794 35.598 34.4715 35.598 34.074C35.598 33.6765 35.2755 33.354 34.878 33.354Z" fill="black"/>
<path d="M24.2108 37.0301C24.2108 37.4276 24.5333 37.7501 24.9308 37.7501H39.4104C39.8079 37.7501 40.1304 37.4276 40.1304 37.0301C40.1304 36.6326 39.8079 36.3101 39.4104 36.3101H24.9308C24.5333 36.3101 24.2108 36.6326 24.2108 37.0301Z" fill="black"/>
<path d="M18.4839 8.69775C18.2027 8.4165 17.7471 8.4165 17.4658 8.69775C17.1846 8.979 17.1846 9.43463 17.4658 9.71588L20.1733 12.4243C20.3139 12.5649 20.4977 12.6353 20.6824 12.6353C21.3168 12.6353 21.6474 11.8621 21.1914 11.4062L18.4839 8.69775Z" fill="black"/>
<path d="M43.1361 12.4243L45.8436 9.71588C46.1248 9.43463 46.1248 8.979 45.8436 8.69775C45.5623 8.4165 45.1067 8.4165 44.8254 8.69775L42.1179 11.4062C41.6621 11.862 41.9925 12.6353 42.627 12.6353C42.8117 12.6353 42.9954 12.5649 43.1361 12.4243Z" fill="black"/>
<path d="M31.5406 4.22398V1.4368C31.5406 1.0393 31.2181 0.716797 30.8206 0.716797C30.4231 0.716797 30.1006 1.0393 30.1006 1.4368V4.22398C30.1006 4.62148 30.4231 4.94398 30.8206 4.94398C31.2181 4.94398 31.5406 4.62148 31.5406 4.22398Z" fill="black"/>
<path d="M14.2292 28.2679C13.8102 28.6569 12.2942 29.1088 10.9677 29.1088C10.4826 29.1088 11.0727 28.8918 0.826718 37.1244C0.299088 37.5537 0.606804 38.4041 1.28047 38.4041C2.22922 38.4041 2.52922 38.6469 2.55266 38.7069C2.57516 38.7632 2.51984 39.1241 1.85234 39.7438C1.37401 40.1871 1.68739 40.9916 2.34172 40.9916H61.6592C62.3139 40.9916 62.6266 40.1868 62.1486 39.7438C61.4811 39.1251 61.4258 38.7632 61.4483 38.7069C61.4717 38.6469 61.7717 38.4041 62.7205 38.4041C63.3951 38.4041 63.7008 37.5528 63.1742 37.1244L53.488 29.2691C53.3595 29.166 53.1992 29.1088 53.0342 29.1088C51.7077 29.1088 50.1908 28.6569 49.7717 28.2679C49.6386 28.1441 49.4642 28.0757 49.2823 28.0757H36.0777C35.6802 28.0757 35.3577 28.3982 35.3577 28.7957C35.3577 29.1932 35.6802 29.5157 36.0777 29.5157H43.659L45.2023 31.5154C45.3439 31.6991 45.5577 31.7957 45.7733 31.7957C46.3589 31.7957 46.7121 31.1157 46.3423 30.636L45.4777 29.5157H49.032C49.8973 30.1241 51.4967 30.4982 52.7727 30.5441L61.0489 37.2547C60.1219 37.6683 59.739 38.567 60.1977 39.5516H53.2208L51.6195 37.4769C51.3777 37.1629 50.9239 37.1029 50.6098 37.3466C50.2948 37.5894 50.2367 38.0413 50.4795 38.3563L51.402 39.5516H10.0794C10.2285 39.4178 11.617 38.0076 12.1367 37.4854C12.4161 37.2022 12.4142 36.7466 12.132 36.4663C11.848 36.186 11.3933 36.1907 11.113 36.471L9.08515 38.5176C8.80578 38.8007 8.80765 39.2563 9.08984 39.5366C9.09658 39.5433 9.10572 39.5453 9.11269 39.5516H3.80328C4.26418 38.5621 3.8751 37.6669 2.95297 37.2547L11.2292 30.5441C12.5042 30.4982 14.1036 30.1241 14.9689 29.5157H18.0055L17.1945 30.3341C16.9152 30.6172 16.917 31.0729 17.1992 31.3532C17.4812 31.6314 17.9353 31.6315 18.2183 31.3485L20.0342 29.5157H26.5789C26.9764 29.5157 27.2989 29.1932 27.2989 28.7957C27.2989 28.3982 26.9764 28.0757 26.5789 28.0757H14.7186C14.5367 28.0757 14.3623 28.1441 14.2292 28.2679Z" fill="black"/>
<path d="M2.3417 45.2828H61.6592C62.3139 45.2828 62.6266 44.4779 62.1486 44.0349C61.4492 43.3862 61.4267 43.0337 61.4511 42.9915C61.6498 42.6474 61.5317 42.2068 61.1876 42.0081C60.8417 41.8084 60.403 41.9284 60.2042 42.2715C60.0251 42.5809 59.862 43.119 60.1986 43.8428H3.79858C4.24108 42.8856 3.81264 42.2462 3.62326 42.0287C3.36076 41.7287 2.90701 41.6978 2.60701 41.9593C2.30701 42.2209 2.27608 42.6756 2.53764 42.9756C2.60701 43.0543 2.47295 43.4584 1.85233 44.0349C1.37534 44.477 1.68503 45.2828 2.3417 45.2828Z" fill="black"/>
</svg>
