<svg width="236" height="236" viewBox="0 0 236 236" fill="none" xmlns="http://www.w3.org/2000/svg">
<path d="M19.2153 208.66L19.1874 208.647L19.1585 208.635C18.8548 208.513 18.6237 208.223 18.516 207.792C18.4091 207.365 18.4581 206.916 18.5949 206.623L91.2642 87.4738L91.3739 87.294V87.0833V28.5553C91.3739 28.0177 91.5498 27.6281 91.8033 27.3746C92.0567 27.1212 92.4464 26.9453 92.9839 26.9453H135.936C136.277 26.9453 136.541 27.0283 136.759 27.1734C136.981 27.3215 137.198 27.5637 137.389 27.9467C137.697 28.5627 137.57 29.1646 137.058 29.677L125.494 41.241L124.974 41.7608L125.483 42.2909L137.047 54.3269L137.052 54.3323L137.058 54.3376C137.57 54.85 137.697 55.4519 137.389 56.0679L137.352 56.1415L137.332 56.2214C137.212 56.7046 136.687 57.0693 135.936 57.0693H95.3439H94.5939V57.8193V87.0833V87.3088L94.7182 87.4969L131.062 142.485L131.581 143.27L132.231 142.589L161.482 111.922C161.484 111.92 161.486 111.918 161.488 111.916C161.788 111.62 162.284 111.433 162.84 111.433C163.181 111.433 163.435 111.633 163.928 112.124L216.992 180.989C216.993 180.991 216.994 180.992 216.995 180.993C217.2 181.27 217.3 181.704 217.233 182.174C217.169 182.619 216.971 182.992 216.716 183.207C216.242 183.442 215.953 183.565 215.704 183.565C215.169 183.565 214.735 183.397 214.44 182.955L214.425 182.933L214.409 182.912L176.413 133.824L175.892 133.151L175.29 133.753L167.738 141.305C167.546 141.497 167.384 141.611 167.226 141.681C167.071 141.75 166.882 141.793 166.616 141.793C166.365 141.793 166.072 141.668 165.589 141.427L149.59 129.899L149.056 129.514L148.606 129.994L133.738 145.806L133.333 146.235L133.656 146.729L148.288 169.149L148.623 169.663L149.193 169.436L168.733 161.667C169.568 161.466 170.154 161.538 170.57 161.954L170.576 161.96L170.582 161.966L217.062 206.322C217.063 206.323 217.065 206.325 217.067 206.327C217.713 206.978 217.711 207.916 217.062 208.565C216.41 209.216 215.469 209.216 214.818 208.565L214.812 208.559L214.805 208.552L169.493 165.364L169.143 165.031L168.695 165.212L148.923 173.215C148.222 173.373 147.414 173.179 146.934 172.555L124.292 137.885L124.152 137.67L123.909 137.587L105.501 131.215L105.171 131.1L104.871 131.279L87.8794 141.427L87.7994 141.475L87.7611 141.513C87.7447 141.519 87.712 141.527 87.6564 141.535C87.5129 141.556 87.3338 141.557 87.0839 141.557C86.832 141.557 86.5389 141.431 86.0538 141.19L70.0524 129.895L69.3968 129.432L68.9794 130.117L21.5522 207.983C21.3969 208.21 21.1484 208.424 20.8548 208.582C20.553 208.745 20.2618 208.817 20.0599 208.817C19.8092 208.817 19.6975 208.815 19.5932 208.798C19.5076 208.784 19.4026 208.754 19.2153 208.66ZM162.96 116.36L162.427 115.672L161.825 116.301L151.913 126.685L151.315 127.312L152.021 127.814L165.945 137.726L166.462 138.094L166.91 137.646L173.518 131.038L173.986 130.57L173.58 130.048L162.96 116.36ZM95.3439 30.1653H94.5939V30.9153V53.0993V53.8493H95.3439H130.508H132.287L131.045 52.5756L121.605 42.8996L121.605 42.8995L121.598 42.893C120.947 42.2419 120.947 41.3007 121.598 40.6496L130.802 31.4456L132.083 30.1653H130.272H95.3439ZM103.99 128.082L104.069 128.035L104.134 127.97C104.301 127.802 104.64 127.711 105.251 127.914C105.252 127.914 105.253 127.914 105.255 127.915L118.935 132.632L121.014 133.349L119.807 131.512L93.6108 91.6276L92.9581 90.6338L92.3424 91.6509L71.3383 126.343L70.9756 126.942L71.5485 127.345L86.6525 137.965L87.0515 138.245L87.4698 137.994L103.99 128.082Z" fill="black" stroke="white" stroke-width="1.5"/>
</svg>
